<svg version="1.1" xmlns="http://www.w3.org/2000/svg" xmlns:xlink="http://www.w3.org/1999/xlink" width="600" height="600" viewBox="0,0,600,600"><g fill="none" fill-rule="nonzero" stroke="none" stroke-width="none" stroke-linecap="butt" stroke-linejoin="miter" stroke-miterlimit="10" stroke-dasharray="" stroke-dashoffset="0" font-family="none" font-weight="none" font-size="none" text-anchor="none" style="mix-blend-mode: normal"><path d="M150,300h75h75" fill="none" stroke="#000000" stroke-width="16" visibility="hidden"/><path d="M150,300h75h75" fill="none" stroke="#000000" stroke-width="16" visibility="hidden"/><path d="M300,300h75h75" fill="none" stroke="#000000" stroke-width="16" visibility="hidden"/><path d="M300,300h75h75" fill="none" stroke="#000000" stroke-width="16" visibility="hidden"/><g fill="none" stroke="#000000" stroke-width="16" font-family="sans-serif" font-weight="normal" font-size="12" text-anchor="start"/><path d="M150,300c0,-41.42136 33.57864,-75 75,-75c41.42136,0 75,33.57864 75,75M150,300c0,41.42136 33.57864,75 75,75c41.42136,0 75,-33.57864 75,-75M300,300c0,-41.42136 33.57864,-75 75,-75c41.42136,0 75,33.57864 75,75M343.30363,367.97308c23.22788,10.83134 50.37845,9.0518 71.99384,-4.71873c21.61539,-13.77052 34.70253,-37.62523 34.70253,-63.25436M112.5,150h375M300,150v300" fill="none" stroke="#000000" stroke-width="16" visibility="hidden"/><path d="M140,300c0.4365,-22.75383 10.06342,-45.27157 24.89592,-60.10408c14.83251,-14.83251 37.35025,-24.89592 60.10408,-24.89592c22.75383,0 45.27157,10.06342 60.10408,24.89592c1.68182,1.68182 3.31975,3.47809 4.89592,5.36503l0,-85.26095h-177.5v-20h375v20h-177.5v85.29615c1.55937,-1.89383 3.19335,-3.69766 4.89592,-5.40023c14.83251,-14.83251 37.35025,-24.89592 60.10408,-24.89592c22.75383,0 45.27157,10.06342 60.10408,24.89592c7.4486,7.4486 14.03609,17.14199 18.2121,27.01517c4.16408,9.845 5.89387,29.19338 5.89387,29.19338c0.17212,0.54696 -6.79706,2.40182 -12.34411,3.89552h13.13406c-0.61637,28.03408 -15.68583,56.62558 -39.32953,71.68827c-11.8859,7.57215 -26.51654,12.23869 -40.1112,13.12974c-6.81084,0.44641 -14.3067,0.01121 -21.07154,-1.24413c-6.75593,-1.25369 -18.00864,-5.76865 -18.00864,-5.76865c-0.59725,-0.14953 4.21314,-19.37286 3.65544,-19.66187c0.31864,0.12098 12.53168,4.75106 18.00228,5.76623c5.53422,1.02698 10.53219,1.31712 16.1144,0.95124c11.19144,-0.73353 20.94378,-3.84201 30.67327,-10.04039c19.58708,-12.47835 30.69189,-31.59626 30.07553,-54.82044h0.07376c-0.22714,-3.31632 -0.73685,-9.8966 -1.39448,-13.11036c-0.89762,-4.38656 -2.07408,-8.1467 -3.7832,-12.1875c-3.41441,-8.07257 -7.81041,-14.54035 -13.93414,-20.66408c-12.31215,-12.31215 -27.29441,-19.03806 -45.96194,-19.03806c-18.66753,0 -33.64979,6.7259 -45.96194,19.03806c-11.6005,11.6005 -18.62936,25.57134 -19.03806,42.76166v153.20028h-20v-95.29615c-1.55937,1.89383 -3.19335,3.69766 -4.89592,5.40023c-14.83251,14.83251 -37.35025,24.89592 -60.10408,24.89592c-22.75383,0 -45.27157,-10.06342 -60.10408,-24.89592c-7.4486,-7.4486 -14.03609,-17.14199 -18.2121,-27.01517c-4.16408,-9.845 -5.89387,-29.19338 -5.89387,-29.19338c-0.17212,-0.54696 6.79706,-2.40182 12.34411,-3.89552zM288.67928,286.88964c-0.89762,-4.38656 -2.07408,-8.1467 -3.7832,-12.1875c-3.41441,-8.07257 -7.81041,-14.54035 -13.93414,-20.66408c-12.31215,-12.31215 -27.29441,-19.03806 -45.96194,-19.03806c-18.66753,0 -33.64979,6.7259 -45.96194,19.03806c-12.31215,12.31215 -19.47456,27.29441 -19.03806,45.96194h-0.07376c0.22714,3.31632 0.73685,9.8966 1.39448,13.11036c0.89762,4.38656 2.07408,8.1467 3.7832,12.1875c3.41441,8.07257 7.81041,14.54035 13.93414,20.66408c12.31215,12.31215 27.29441,19.03806 45.96194,19.03806c18.66753,0 33.64979,-6.7259 45.96194,-19.03806c11.6005,-11.6005 18.62936,-25.57134 19.03806,-42.76166v-4.24872c-0.25342,-3.50989 -0.72673,-9.15915 -1.32072,-12.06192zM345.12817,358.14094c0.00219,0.00055 0.00431,0.00135 0.00636,0.00242c-0.00422,-0.0016 -0.00636,-0.00242 -0.00636,-0.00242z" fill-opacity="0" fill="#000000" stroke="#0000ff" stroke-width="0"/></g></svg>