<svg version="1.1" xmlns="http://www.w3.org/2000/svg" xmlns:xlink="http://www.w3.org/1999/xlink" width="819" height="673" viewBox="0,0,819,673"><g fill="none" fill-rule="nonzero" stroke="#000001" stroke-width="16" stroke-linecap="butt" stroke-linejoin="miter" stroke-miterlimit="10" stroke-dasharray="" stroke-dashoffset="0" font-family="none" font-weight="none" font-size="none" text-anchor="none" style="mix-blend-mode: normal"><path d="M409.5,186.5v300"/><path d="M222,186.5h375"/><path d="M259.5,336.5h75h75" visibility="hidden"/><path d="M259.5,336.5h75h75" visibility="hidden"/><path d="M409.5,336.5h75h75" visibility="hidden"/><path d="M409.5,336.5h75h75" visibility="hidden"/><path d="M259.5,336.5c0,-41.42136 33.57864,-75 75,-75c41.42136,0 75,33.57864 75,75"/><path d="M259.5,336.5c0,41.42136 33.57864,75 75,75c41.42136,0 75,-33.57864 75,-75"/><path d="M409.5,336.5c0,-41.42136 33.57864,-75 75,-75c41.42136,0 75,33.57864 75,75"/><path d="M452.80363,404.47308c23.22788,10.83134 50.37845,9.0518 71.99384,-4.71873c21.61539,-13.77052 34.70253,-37.62523 34.70253,-63.25436"/></g></svg>