<svg version="1.1" xmlns="http://www.w3.org/2000/svg" xmlns:xlink="http://www.w3.org/1999/xlink" width="600" height="600" viewBox="0,0,600,600"><g fill="none" fill-rule="nonzero" stroke="none" stroke-width="none" stroke-linecap="butt" stroke-linejoin="miter" stroke-miterlimit="10" stroke-dasharray="" stroke-dashoffset="0" font-family="none" font-weight="none" font-size="none" text-anchor="none" style="mix-blend-mode: normal"><path d="M150,300l56.25,75l56.25,75" fill="none" stroke="#000000" stroke-width="16" visibility="hidden"/><path d="M187.5,150c28.06759,5.50693 50.8112,26.04231 59.14628,53.40364c8.33508,27.36133 0.90314,57.08909 -19.32726,77.30904c-20.23041,20.21996 -49.962,27.63654 -77.31902,19.28732M150,300c14.48959,54.00666 56.25269,96.45101 110.01786,111.81249c53.76517,15.36148 111.64783,1.38735 152.48214,-36.81249M412.5,150v300M412.5,281.25c-9.28118,-30.24119 -39.29025,-49.14172 -70.57363,-44.44921c-31.28338,4.69251 -54.42637,31.56585 -54.42637,63.19921c0,31.63337 23.14298,58.50671 54.42637,63.19921c31.28338,4.69251 61.29245,-14.20803 70.57363,-44.44921M131.25,150h337.5" fill="none" stroke="#000000" stroke-width="16" visibility="hidden"/><path d="M256.21227,200.48955c9.08505,29.82322 0.22667,65.25674 -21.82401,87.29603c-11.09211,11.08638 -26.00368,19.33685 -40.63593,22.98688c-7.33233,1.82906 -15.5847,2.75557 -23.20916,2.57691c-1.71814,-0.04026 -3.719,-0.23307 -5.78745,-0.50753c0.41119,1.1178 0.80542,2.14263 1.16548,3.01202c2.50893,6.05801 5.25299,11.62603 8.49021,17.25599c6.47272,11.25691 13.95376,21.08375 22.99721,30.27471c18.10735,18.40272 39.73707,31.49287 65.35644,38.81269c50.00376,14.28679 101.44486,3.13197 139.73493,-31.54759v-17.48436c-3.64182,3.60483 -7.57939,6.77155 -11.70666,9.37102c-13.96091,8.79296 -32.88988,13.17134 -50.35038,10.55226c-17.46049,-2.61907 -34.2718,-12.35849 -45.03845,-24.86059c-10.76665,-12.5021 -17.90451,-30.57216 -17.90451,-48.22799c0,-17.65583 7.13786,-35.72589 17.90451,-48.22799c10.76665,-12.5021 27.57796,-22.24151 45.03845,-24.86059c17.46049,-2.61907 36.38947,1.7593 50.35038,10.55226c4.04139,2.54538 8.04978,5.69554 11.70666,9.18159v-86.64528l-173.58367,0c12.68199,10.74306 22.50947,24.77717 27.29594,40.48955zM422.5,450h-20v-54.18219c-41.6813,29.30296 -96.03461,39.66556 -145.22935,25.60992c-28.1458,-8.04166 -54.28021,-23.85442 -74.1181,-44.01591c-19.83789,-20.16149 -40.28059,-70.39819 -40.28059,-70.39819c-0.34983,-0.45765 3.16203,-2.75333 7.02112,-5.11565c0.30504,-5.48705 0.70814,-11.766 0.3495,-11.89341c0.39247,0.08657 14.56867,3.20499 20.76912,3.35028c6.27658,0.14708 11.85095,-0.47882 17.89995,-1.98775c12.1304,-3.02594 22.19984,-8.59374 31.33813,-17.72732c18.41014,-18.40063 24.41563,-42.42262 16.83052,-67.32206c-7.4798,-24.55371 -25.32165,-41.71153 -50.44025,-46.31773h-55.39005v-20h337.5v20l-46.25,0zM150.24258,290.00458c-0.00553,-0.00122 -0.00832,-0.00184 -0.00832,-0.00184c0.00282,0.00025 0.00559,0.00087 0.00832,0.00184zM399.21478,275.08056c-1.55973,-2.99787 -3.1304,-5.44327 -5.1655,-8.072c-4.06537,-5.25124 -8.35206,-9.11828 -13.91461,-12.62173c-11.18477,-7.04447 -22.90201,-9.77011 -36.72491,-7.69668c-13.82289,2.07343 -24.22477,8.11694 -32.85046,18.13299c-8.62569,10.01604 -13.05932,21.19933 -13.05932,35.17687c0,13.97753 4.43363,25.16082 13.05932,35.17687c8.62569,10.01604 19.02756,16.05955 32.85046,18.13299c13.82289,2.07343 25.54014,-0.65221 36.72491,-7.69668c10.76605,-6.78075 18.44676,-15.63968 22.36532,-28.30234l0,-34.44249c-0.96972,-2.52349 -2.35465,-5.99918 -3.28522,-7.78778z" fill-opacity="0" fill="#000000" stroke="#0000ff" stroke-width="0"/></g></svg>