<svg version="1.1" xmlns="http://www.w3.org/2000/svg" xmlns:xlink="http://www.w3.org/1999/xlink" width="600" height="600" viewBox="0,0,600,600"><g fill="none" fill-rule="nonzero" stroke="none" stroke-width="none" stroke-linecap="butt" stroke-linejoin="miter" stroke-miterlimit="10" stroke-dasharray="" stroke-dashoffset="0" font-family="none" font-weight="none" font-size="none" text-anchor="none" style="mix-blend-mode: normal"><path d="M270,450c0,-22.09139 17.90861,-40 40,-40c22.09139,0 40,17.90861 40,40c0,22.09139 -17.90861,40 -40,40c-22.09139,0 -40,-17.90861 -40,-40z" fill="none" stroke="#000000" stroke-width="16" visibility="hidden"/><path d="M250,150v187.5M170,337.5c0,-22.09139 17.90861,-40 40,-40c22.09139,0 40,17.90861 40,40c0,22.09139 -17.90861,40 -40,40c-22.09139,0 -40,-17.90861 -40,-40zM350,150v300M168.75,150h262.5" fill="none" stroke="#000000" stroke-width="16" visibility="hidden"/><path d="M260,337.5c0,13.08884 -6.14591,26.85659 -14.64466,35.35534c-8.49875,8.49875 -22.2665,14.64466 -35.35534,14.64466c-13.08884,0 -26.85659,-6.14591 -35.35534,-14.64466c-8.49875,-8.49875 -14.64466,-22.2665 -14.64466,-35.35534c0,-13.08884 6.14591,-26.85659 14.64466,-35.35534c8.49875,-8.49875 22.2665,-14.64466 35.35534,-14.64466c10.60993,0 21.66596,4.0384 30,10.09485l0,-137.59485h-71.25v-20h262.5v20l-71.25,0v290h-20v-290l-80,0zM188.7868,358.7132c5.9784,5.9784 12.21066,8.7868 21.2132,8.7868c9.00255,0 15.2348,-2.8084 21.2132,-8.7868c5.9784,-5.9784 8.7868,-12.21066 8.7868,-21.2132c0,-9.00255 -2.8084,-15.2348 -8.7868,-21.2132c-5.9784,-5.9784 -12.21066,-8.7868 -21.2132,-8.7868c-9.00255,0 -15.2348,2.8084 -21.2132,8.7868c-5.9784,5.9784 -8.7868,12.21066 -8.7868,21.2132c0,9.00255 2.8084,15.2348 8.7868,21.2132z" fill-opacity="0" fill="#000000" stroke="#0000ff" stroke-width="0"/></g></svg>