<svg version="1.1" xmlns="http://www.w3.org/2000/svg" xmlns:xlink="http://www.w3.org/1999/xlink" width="600" height="600" viewBox="0,0,600,600"><g fill="none" fill-rule="nonzero" stroke="none" stroke-width="none" stroke-linecap="butt" stroke-linejoin="miter" stroke-miterlimit="10" stroke-dasharray="" stroke-dashoffset="0" font-family="none" font-weight="none" font-size="none" text-anchor="none" style="mix-blend-mode: normal"><path d="M225,150c-28.89023,8.79268 -46.14025,38.34589 -39.58925,67.82539c6.551,29.4795 34.69415,48.94534 64.58925,44.67461M250,262.5c-30.11577,16.73098 -41.71137,54.21307 -26.30432,85.02716c15.40705,30.81409 52.35007,44.02686 83.80432,29.97284M307.5,377.5c40.06474,-12.22519 73.44806,-40.195 92.5,-77.5M400,150v300M131.25,150h337.5" fill="none" stroke="#000000" stroke-width="16" visibility="hidden"/><path d="M219.41541,163.06707c-2.79977,1.48263 -5.02945,2.95341 -7.45873,4.89931c-4.85169,3.8863 -8.30414,7.91674 -11.40533,13.22979c-6.24288,10.69547 -8.23388,21.61172 -5.37873,34.45992c2.85515,12.84819 9.28212,21.89379 19.46728,28.93858c10.18516,7.04479 20.97181,10.25398 33.94588,8.00584l1.60665,11.24654c3.1494,3.29397 6.07017,6.38658 6.27089,6.28293c-0.16239,0.10292 -7.6318,4.84003 -10.40602,7.19157c-2.79449,2.36872 -4.98551,4.63152 -7.23206,7.43816c-4.48734,5.60607 -7.39636,11.14386 -9.49517,17.92815c-4.22277,13.64987 -3.50664,26.73413 3.30988,40.36717c6.81652,13.63304 16.85425,22.0565 30.30781,26.8682c13.45356,4.8117 26.72392,5.03912 40.47284,-1.55331l8.1588,18.26017c-17.70533,7.46159 -38.63361,8.10964 -55.36688,2.12494c-16.73328,-5.9847 -32.87058,-19.57467 -41.46111,-36.75573c-8.59053,-17.18106 -9.78012,-38.24488 -4.52791,-55.22232c2.63868,-8.52937 7.31232,-17.42503 12.98775,-24.51539c0.44609,-0.55731 0.93985,-1.12627 1.47098,-1.70158c-7.85544,-1.99878 -15.23078,-5.23607 -21.41946,-9.51661c-12.99794,-8.99032 -23.91804,-24.41739 -27.61389,-41.0487c-3.69585,-16.63131 -0.33734,-35.23141 7.6296,-48.88059c2.22394,-3.81012 5.02296,-7.61706 8.15231,-11.1141h-60.18079v-20h337.5v20l-58.75,0v290h-20v-116.58314c-6.66535,8.228 -14.05499,15.79021 -21.948,22.40327c-16.48427,13.81114 -54.1298,29.34507 -54.1298,29.34507c-0.81024,0.5532 -10.04643,-16.95554 -10.29116,-16.8864c0,0 0,0 0,0c-0.0003,0.0001 -0.00045,0.00015 -0.00045,0.00015c0.00015,-0.00006 0.0003,-0.00011 0.00045,-0.00015c0.07746,-0.02597 10.16003,-3.40651 14.6957,-5.30981c4.55142,-1.9099 8.76325,-3.93333 13.07476,-6.2763c8.62148,-4.68512 16.31831,-9.92941 23.80611,-16.20297c14.38522,-12.05248 25.95324,-26.06751 34.7924,-42.91081v-137.57891l-163.38877,0c-2.39149,0.92628 -5.57012,2.20618 -7.19582,3.06707zM256.46602,270.12828c-0.00083,0.00064 -0.00173,0.00121 -0.00269,0.0017c0.00179,-0.00113 0.00269,-0.0017 0.00269,-0.0017z" fill-opacity="0" fill="#000000" stroke="#0000ff" stroke-width="0"/></g></svg>