<svg version="1.1" xmlns="http://www.w3.org/2000/svg" xmlns:xlink="http://www.w3.org/1999/xlink" width="600" height="600" viewBox="0,0,600,600"><g fill="none" fill-rule="nonzero" stroke="none" stroke-width="none" stroke-linecap="butt" stroke-linejoin="miter" stroke-miterlimit="10" stroke-dasharray="" stroke-dashoffset="0" font-family="none" font-weight="none" font-size="none" text-anchor="none" style="mix-blend-mode: normal"><g fill="none" stroke="#000000" stroke-width="16" font-family="sans-serif" font-weight="normal" font-size="12" text-anchor="start"/><path d="M360,180v40M360,220h-100M260,220c-22.09139,0 -40,17.90861 -40,40c0,22.09139 17.90861,40 40,40M260,300h70M330,300c33.13708,0 60,26.86292 60,60c0,33.13708 -26.86292,60 -60,60M330,420h-100M387.51472,291l8.48528,-8.48528l8.48528,8.48528l-8.48528,8.48528zM180,180h240" fill="none" stroke="#000000" stroke-width="16" visibility="hidden"/><path d="M370,220h-10v10h-100v-0.23165c-3.75888,0.58148 -9.22862,1.55066 -11.67428,2.58509c-3.88522,1.64331 -6.58207,3.4765 -9.53892,6.43335c-5.9784,5.9784 -8.7868,12.21066 -8.7868,21.2132c0,9.00255 2.8084,15.2348 8.7868,21.2132c5.9784,5.9784 12.21066,9.2233 21.2132,8.7868h70c18.61169,0.4365 37.37943,8.38448 49.49747,20.50253c12.11804,12.11804 20.50253,30.88578 20.50253,49.49747c0,18.61169 -8.38448,37.37943 -20.50253,49.49747c-6.09137,6.09137 -14.16864,11.58051 -22.24725,14.99747c-8.05042,3.40504 -23.35471,4.7151 -23.35471,4.7151c-0.54696,0.17212 -2.40182,-6.79706 -3.89552,-12.34411v13.13406h-100v-20h100v0.0693c2.7717,-0.19752 7.70173,-0.59711 10.08734,-1.08527c3.4101,-0.69781 6.22833,-1.57957 9.37185,-2.90917c6.27799,-2.65537 11.12966,-5.95302 15.89615,-10.71952c9.59769,-9.59769 14.64466,-20.82995 14.64466,-35.35534c0,-14.52539 -5.04697,-25.75765 -14.64466,-35.35534c-9.59769,-9.59769 -20.82995,-15.08116 -35.35534,-14.64466h-70c-13.08884,-0.4365 -26.85659,-6.14591 -35.35534,-14.64466c-8.49875,-8.49875 -14.64466,-22.2665 -14.64466,-35.35534c0,-13.08884 6.14591,-26.85659 14.64466,-35.35534c4.28173,-4.28173 10.20417,-8.3064 15.89001,-10.71131c5.65765,-2.39299 15.56981,-3.1434 15.56981,-3.1434c0.45368,-0.14277 2.1746,4.53364 3.89552,9.21004v-10h90v-20h-170v-20h240v20h-50zM396,268.37258l22.62742,22.62742l-22.62742,22.62742l-22.62742,-22.62742zM401.65685,291l-5.65685,-5.65685l-5.65685,5.65685l5.65685,5.65685z" fill-opacity="0" fill="#000000" stroke="#0000ff" stroke-width="0"/></g></svg>