<svg version="1.1" xmlns="http://www.w3.org/2000/svg" xmlns:xlink="http://www.w3.org/1999/xlink" width="600" height="600" viewBox="0,0,600,600"><g fill="none" fill-rule="nonzero" stroke="none" stroke-width="none" stroke-linecap="butt" stroke-linejoin="miter" stroke-miterlimit="10" stroke-dasharray="" stroke-dashoffset="0" font-family="none" font-weight="none" font-size="none" text-anchor="none" style="mix-blend-mode: normal"><g fill="none" stroke="#000000" stroke-width="16" font-family="sans-serif" font-weight="normal" font-size="12" text-anchor="start"/><g fill="none" stroke="#000000" stroke-width="16" visibility="hidden"><path d="M150,296h75"/><path d="M225,293.88227c-19.91962,-27.51381 -18.10487,-65.16018 4.36887,-90.63041c22.47373,-25.47023 59.60117,-31.95835 89.38113,-15.61959"/><path d="M318.75,187.5c41.99338,24.25419 74.9133,61.56344 93.75,106.25"/></g><path d="M412.5,150v300M150,300h75M225,300c-19.91962,27.51381 -18.10487,65.16018 4.36887,90.63041c22.47373,25.47023 59.60117,31.95835 89.38113,15.61959M318.75,406.25c41.99338,-24.25419 74.9133,-61.56344 93.75,-106.25M131.25,150h337.5" fill="none" stroke="#000000" stroke-width="16" visibility="hidden"/><path d="M422.5,450h-20v-109.95681c-6.26509,9.68413 -13.20555,18.87455 -20.69287,27.36017c-8.18281,9.27385 -17.40578,18.16958 -27.0047,26.03272c-9.59693,7.86151 -29.71548,20.54975 -29.71548,20.54975c-0.18838,0.14204 -4.2316,-5.40658 -7.57892,-9.99951l6.05206,11.03084c-16.56674,8.73248 -36.60283,11.98569 -53.96194,8.95214c-17.35911,-3.03355 -35.33899,-12.68216 -47.72767,-26.72267c-12.38868,-14.0405 -19.72347,-33.08185 -20.57196,-50.68358c-0.42573,-8.83151 0.7063,-18.57998 3.22212,-27.18315c0.82082,-2.80691 2.26844,-6.15063 3.84512,-9.37989h-58.36577v-20h75v10.75666c4.47575,1.89728 8.85644,3.80005 8.98461,3.63328c-0.08637,0.1328 -4.83904,7.44435 -6.45197,10.74724c-1.62369,3.32494 -2.79296,6.35802 -3.81593,9.85621c-2.044,6.98973 -2.78861,13.40358 -2.44138,20.60667c0.69741,14.46746 5.50687,26.98441 15.59192,38.41414c10.08505,11.42973 21.90575,17.76029 36.17379,20.25366c14.26804,2.49338 27.68565,0.82127 40.89887,-6.78501l0.00322,0.00588c2.63073,-1.60601 10.48007,-6.42606 14.42978,-9.15863c4.78849,-3.31288 9.26883,-6.69023 13.75562,-10.36567c8.97286,-7.35029 17.03092,-15.12245 24.68185,-23.7935c14.86801,-16.85041 26.73753,-35.34521 35.68962,-56.20186l0,-137.96907h-271.25v-20h337.5v20l-46.25,0zM233.9858,304.3881c-0.00035,0.00064 -0.00074,0.00125 -0.00119,0.00183c0.00079,-0.00122 0.00119,-0.00183 0.00119,-0.00183z" fill-opacity="0" fill="#000000" stroke="#0000ff" stroke-width="0"/></g></svg>