<svg version="1.1" xmlns="http://www.w3.org/2000/svg" xmlns:xlink="http://www.w3.org/1999/xlink" width="600" height="600" viewBox="0,0,600,600"><g fill="none" fill-rule="nonzero" stroke="none" stroke-width="none" stroke-linecap="butt" stroke-linejoin="miter" stroke-miterlimit="10" stroke-dasharray="" stroke-dashoffset="0" font-family="none" font-weight="none" font-size="none" text-anchor="none" style="mix-blend-mode: normal"><g fill="none" stroke="#000000" stroke-width="16" font-family="sans-serif" font-weight="normal" font-size="12" text-anchor="start"/><path d="M400,150v75M375,262.5c0,-20.71068 11.19288,-37.5 25,-37.5c13.80712,0 25,16.78932 25,37.5c0,20.71068 -11.19288,37.5 -25,37.5c-13.80712,0 -25,-16.78932 -25,-37.5zM200,225c-21.51067,-0.49896 -40.97834,12.67732 -48.50957,32.83268c-7.53123,20.15536 -1.47422,42.86917 15.09288,56.5983c16.5671,13.72914 40.01065,15.46243 58.41669,4.31901M225,318.75c-31.90509,25.21756 -45.6474,67.06368 -34.90472,106.28682c10.74268,39.22314 43.88982,68.22688 84.19186,73.66788c40.30205,5.441 79.95365,-13.73449 100.71286,-48.7047M375,450c38.43039,-54.5669 56.15735,-121.04303 50,-187.5M131.25,150h337.5" fill="none" stroke="#000000" stroke-width="16" visibility="hidden"/><path d="M410,217.22311c6.38912,2.73097 12.31381,7.68684 15.99817,13.21338c5.26775,7.90162 8.90472,19.95458 8.99991,31.59607c3.01394,33.97932 0.03468,68.81528 -8.61533,101.25284c-4.34559,16.29596 -10.27257,32.62634 -17.42882,47.96974c-7.15486,15.34041 -24.8912,42.97178 -24.8912,42.97178c-0.17288,0.3319 -12.90991,-6.78946 -16.67852,-8.74784l16.2148,9.62552c-11.34192,18.65613 -28.48235,34.31723 -47.27325,43.40451c-18.7909,9.08727 -41.74079,13.02664 -63.37654,10.10569c-21.63575,-2.92095 -42.71939,-12.80509 -58.42782,-26.54997c-15.70843,-13.74488 -28.30382,-33.32988 -34.07092,-54.38643c-5.7671,-21.05655 -4.90904,-44.32627 1.60344,-64.15715c3.11551,-9.4869 7.83334,-19.1471 13.49628,-27.55757c-0.39704,-0.01974 -0.79225,-0.04412 -1.18549,-0.07319c-11.68216,-0.86372 -24.65582,-5.88186 -34.16217,-13.75976c-9.50635,-7.8779 -16.84663,-19.6939 -19.8649,-31.01243c-3.01827,-11.31853 -2.53612,-25.22051 1.78537,-36.78583c4.32149,-11.56532 13.07384,-22.37707 22.77478,-28.94295c4.8705,-3.2965 10.94561,-6.18797 16.65156,-7.88796c5.69044,-1.69536 15.59536,-2.08526 15.59536,-2.08526c0.73509,-0.15964 4.92608,19.11882 5.69835,19.16829c-0.41763,0.03053 -11.41901,0.84375 -15.58313,2.08437c-4.22946,1.26009 -7.52523,2.82884 -11.15188,5.28347c-7.29337,4.93636 -12.04046,10.79044 -15.25021,19.38047c-3.20974,8.59004 -3.4647,16.12264 -1.1955,24.63214c2.2692,8.5095 6.24097,14.91498 13.30173,20.76621c7.06075,5.85124 14.09242,8.56431 22.87531,9.21367c8.78289,0.64936 16.27119,-0.77861 23.98159,-5.74932l6.17277,10.19583c3.26294,2.79544 6.16926,5.29721 6.29942,5.2001c-0.10624,0.0914 -7.96271,6.85259 -11.09959,10.19751c-3.15419,3.36338 -5.80453,6.64768 -8.40179,10.39139c-5.19178,7.48345 -8.91811,14.9995 -11.73627,23.58096c-5.64927,17.20235 -6.29103,34.46726 -1.31545,52.63385c4.97558,18.16659 14.3251,32.69502 27.95142,44.61805c13.62632,11.92303 29.26727,19.26126 47.93357,21.78131c18.6663,2.52006 35.69323,-0.40782 51.99345,-8.2906c16.26923,-7.86779 29.31551,-19.25115 38.72873,-35.51562c-0.00062,0.00034 -0.00111,0.00076 -0.00148,0.00125c0.00056,-0.00083 0.00241,-0.00359 0.00553,-0.00826c0.01657,-0.02864 0.03314,-0.0573 0.04969,-0.08598l0.00562,0.00334c0.81236,-1.21422 9.52394,-14.25636 13.37369,-20.90638c4.03945,-6.97771 7.65607,-13.91821 11.04817,-21.19105c6.78369,-14.5446 12.10931,-29.21811 16.22959,-44.66916c4.70281,-17.63553 7.63971,-35.45093 8.72373,-53.50502c-4.89962,3.27049 -10.49454,5.37288 -15.78178,5.37288c-9.69114,0 -20.41601,-7.06326 -25.99817,-15.43649c-5.33829,-8.00743 -9.00183,-20.27812 -9.00183,-32.06351c0,-11.78538 3.66354,-24.05608 9.00183,-32.06351c3.68436,-5.52654 9.60905,-10.48241 15.99817,-13.21338v-57.22311h-258.75v-20h337.5v20l-58.75,0zM390.64283,283.4695c3.46606,5.19909 5.24119,6.5305 9.35717,6.5305c4.11598,0 5.89111,-1.33141 9.35717,-6.5305c3.70993,-5.5649 5.64283,-12.04421 5.64283,-20.9695c0,-8.9253 -1.9329,-15.4046 -5.64283,-20.9695c-3.46606,-5.19909 -5.24119,-6.5305 -9.35717,-6.5305c-4.11598,0 -5.89111,1.33141 -9.35717,6.5305c-3.70993,5.5649 -5.64283,12.04421 -5.64283,20.9695c0,8.9253 1.9329,15.4046 5.64283,20.9695zM202.85529,234.5837c-0.00398,0.00086 -0.00805,0.00116 -0.01223,0.00089c0.00811,-0.00059 0.01223,-0.00089 0.01223,-0.00089zM232.29427,325.59059c-0.00034,0.00034 -0.0007,0.00065 -0.00109,0.00094c0.00072,-0.00062 0.00109,-0.00094 0.00109,-0.00094zM366.34558,444.9899c0.00006,-0.00009 0.00011,-0.00018 0.00018,-0.00027c-0.00012,0.00018 -0.00018,0.00027 -0.00018,0.00027z" fill-opacity="0" fill="#000000" stroke="#0000ff" stroke-width="0"/></g></svg>