<svg version="1.1" xmlns="http://www.w3.org/2000/svg" xmlns:xlink="http://www.w3.org/1999/xlink" width="600" height="600" viewBox="0,0,600,600"><g fill="none" fill-rule="nonzero" stroke="none" stroke-width="none" stroke-linecap="butt" stroke-linejoin="miter" stroke-miterlimit="10" stroke-dasharray="" stroke-dashoffset="0" font-family="none" font-weight="none" font-size="none" text-anchor="none" style="mix-blend-mode: normal"><g fill="none" stroke="#000000" stroke-width="16" font-family="sans-serif" font-weight="normal" font-size="12" text-anchor="start"/><g fill="none" stroke="#000000" stroke-width="16" font-family="sans-serif" font-weight="normal" font-size="12" text-anchor="start"/><path d="M412.5,150v300M412.5,275h-75M337.5,275c19.91962,27.51381 18.10487,65.16018 -4.36887,90.63041c-22.47373,25.47023 -59.60117,31.95835 -89.38113,15.61959M243.75,381.25c-41.99338,-24.25419 -74.9133,-61.56344 -93.75,-106.25M131.25,150h337.5" fill="none" stroke="#000000" stroke-width="16" visibility="hidden"/><path d="M422.5,450h-20v-165l-48.16629,0c4.99116,11.79991 7.44381,24.6132 6.86777,36.56304c-0.8485,17.60173 -8.18328,36.64308 -20.57196,50.68358c-12.38868,14.0405 -30.36856,23.68912 -47.72767,26.72267c-8.70977,1.52206 -18.52333,1.61265 -27.37281,0.18762c-8.8292,-1.42177 -23.36886,-8.0341 -23.36886,-8.0341c-0.47413,-0.11705 1.45314,-6.85332 3.01579,-12.34172l-6.42741,11.12833c-21.67051,-12.59387 -41.69515,-28.96412 -58.0557,-47.50607c-8.18281,-9.27385 -15.86093,-19.53269 -22.46768,-30.03597c-6.60539,-10.50111 -16.68985,-32.04296 -16.68985,-32.04296c-0.2003,-0.34883 17.40852,-9.75662 17.3329,-9.94546c0.02581,0.05773 5.02965,11.24905 7.71403,16.40033c2.69086,5.16373 5.48407,10.02972 8.57224,14.93924c6.17585,9.81824 12.88418,18.78133 20.53511,27.45239c15.30694,17.34786 32.73895,31.75934 53.06182,43.41966l-0.01896,0.03282c2.54655,1.20573 7.24315,3.38154 9.72154,4.22889c3.50123,1.19706 6.6563,1.97956 10.25465,2.559c7.18984,1.15778 13.64649,1.09798 20.75029,-0.14343c14.26804,-2.49338 26.08874,-8.82394 36.17379,-20.25366c10.08505,-11.42973 14.89451,-23.94668 15.59192,-38.41414c0.69741,-14.46746 -2.63236,-27.57245 -11.82468,-39.73576l8.10001,-5.86429v-10l65,0l0,-105h-271.25v-20h337.5v20l-46.25,0zM158.86824,270.37896c-0.00007,-0.00015 -0.0001,-0.00022 -0.0001,-0.00022c0.00004,0.00007 0.00007,0.00015 0.0001,0.00022z" fill-opacity="0" fill="#000000" stroke="#0000ff" stroke-width="0"/></g></svg>