<svg version="1.1" xmlns="http://www.w3.org/2000/svg" xmlns:xlink="http://www.w3.org/1999/xlink" width="819" height="598" viewBox="0,0,819,598"><g fill="none" fill-rule="nonzero" stroke="#000001" stroke-width="16" stroke-linecap="butt" stroke-linejoin="miter" stroke-miterlimit="10" stroke-dasharray="" stroke-dashoffset="0" font-family="none" font-weight="none" font-size="none" text-anchor="none" style="mix-blend-mode: normal"><path d="M522,149v300"/><g><path d="M522,274h-75"/><path d="M447,274c19.91962,27.51381 18.10487,65.16018 -4.36887,90.63041c-22.47373,25.47023 -59.60117,31.95835 -89.38113,15.61959"/><path d="M353.25,380.25c-41.99338,-24.25419 -47.7107,-31.33101 -55.55876,-45.46286c-7.84805,-14.13185 -19.35455,-16.10058 -38.19124,-60.78714" visibility="hidden"/></g><g font-family="sans-serif" font-weight="normal" font-size="12" text-anchor="start"/><path d="M240.75,149h337.5"/><path d="M353.25,380.25c-41.99338,-24.25419 -42.99721,-42.86117 -18.75,-42.85714c24.24721,0.00403 93.75806,69.36271 93.75,117.85714"/><path d="M259.5,274c51.21371,-25.70127 113.24236,-14.54284 152.28829,27.39538c39.04593,41.93822 45.75096,104.60486 16.46171,153.85462" visibility="hidden"/><path d="M297.69124,334.78714c3.64382,-7.18184 11.23591,-11.48152 19.26914,-10.91285c8.03323,0.56868 14.94388,5.89503 17.53962,13.51857" visibility="hidden"/></g></svg>