<svg version="1.1" xmlns="http://www.w3.org/2000/svg" xmlns:xlink="http://www.w3.org/1999/xlink" width="585.27344" height="600" viewBox="0,0,585.27344,600"><g fill="none" fill-rule="nonzero" stroke="none" stroke-width="none" stroke-linecap="butt" stroke-linejoin="miter" stroke-miterlimit="10" stroke-dasharray="" stroke-dashoffset="0" font-family="none" font-weight="none" font-size="none" text-anchor="none" style="mix-blend-mode: normal"><g fill="none" stroke="#000000" stroke-width="16"><path d="M236.38672,381.25c-41.99338,-24.25419 -47.7107,-31.33101 -55.55876,-45.46286c-7.84805,-14.13185 -19.35455,-16.10058 -38.19124,-60.78714" visibility="hidden"/></g><g fill="none" stroke="#000000" stroke-width="16" font-family="sans-serif" font-weight="normal" font-size="12" text-anchor="start"/><path d="M142.63672,275c51.21371,-25.70127 113.24236,-14.54284 152.28829,27.39538c39.04593,41.93822 45.75096,104.60486 16.46171,153.85462" fill="none" stroke="#000000" stroke-width="16" visibility="hidden"/><path d="M180.82796,335.78714c3.64382,-7.18184 11.23591,-11.48152 19.26914,-10.91285c8.03323,0.56868 14.94388,5.89503 17.53962,13.51857" fill="none" stroke="#000000" stroke-width="16" visibility="hidden"/><path d="M405.13672,150v300M405.13672,275h-75M330.13672,275c19.91962,27.51381 18.10487,65.16018 -4.36887,90.63041c-22.47373,25.47023 -59.60117,31.95835 -89.38113,15.61959M236.38672,381.25c-41.99338,-24.25419 -42.99721,-42.86117 -18.75,-42.85714c24.24721,0.00403 93.75806,69.36271 93.75,117.85714M123.88672,150h337.5" fill="none" stroke="#000000" stroke-width="16" visibility="hidden"/><path d="M415.13672,450h-20l0,-165l-48.16629,0c4.99116,11.79991 7.44381,24.6132 6.86777,36.56304c-0.8485,17.60173 -8.18328,36.64308 -20.57196,50.68358c-9.26064,10.4954 -21.64548,18.53674 -34.55986,23.19545c3.82457,5.7079 7.32748,11.54406 10.32624,17.33855c7.27127,14.05026 11.23527,38.8732 11.23527,38.8732c0.31547,0.75629 -18.44735,6.8109 -18.4658,7.44326c-0.03443,-0.35451 -1.28082,-13.10456 -3.03076,-18.97966c-1.79312,-6.02005 -4.2372,-11.8377 -7.50106,-18.14445c-3.89812,-7.53233 -8.56402,-14.90505 -13.78057,-22.02489c-6.44007,0.46207 -13.119,0.20802 -19.32395,-0.79116c-8.8292,-1.42177 -23.36886,-8.0341 -23.36886,-8.0341c-0.47413,-0.11705 1.45314,-6.85332 3.01579,-12.34172l-6.42741,11.12833c-22.0259,-12.91568 -35.56389,-26.26073 -38.73418,-36.12508c-1.00081,-3.11401 -1.26033,-7.71824 -0.49924,-10.70075c0.80082,-3.1382 3.53478,-7.22139 6.04158,-9.22231c4.253,-3.39473 12.12776,-5.46964 19.44494,-5.46842c15.09665,0.00251 42.3917,19.96004 63.50585,44.17224c1.66673,1.91128 3.32404,3.87607 4.96181,5.88492c12.49336,-2.92753 23.0388,-9.09458 32.16343,-19.43582c10.08505,-11.42973 14.89451,-23.94668 15.59192,-38.41414c0.69741,-14.46746 -2.63236,-27.57245 -11.82468,-39.73576l8.10001,-5.86429v-10l65,0l0,-105h-271.25v-20h337.5v20l-46.25,0zM251.09075,376.85229c3.13039,1.07027 5.98406,1.80915 9.12524,2.3678c-17.63243,-18.88055 -34.3389,-30.82586 -42.58092,-30.82723c-3.3166,-0.00055 -5.13697,-0.539 -6.06145,-1.05681c0.04036,0.1002 0.07999,0.20962 0.11829,0.3288c1.76817,5.50167 9.72878,13.58721 29.69626,24.92572l-0.01896,0.03282c2.54655,1.20573 7.24315,3.38154 9.72154,4.22889zM301.80209,459.09709c0.00049,0.00501 0.00073,0.00755 0.00073,0.00755c-0.00056,-0.00242 -0.00081,-0.00494 -0.00073,-0.00755z" fill-opacity="0" fill="#000000" stroke="#0000ff" stroke-width="1"/></g></svg>