<svg version="1.1" xmlns="http://www.w3.org/2000/svg" xmlns:xlink="http://www.w3.org/1999/xlink" width="600" height="600" viewBox="0,0,600,600"><g fill="none" fill-rule="nonzero" stroke="none" stroke-width="none" stroke-linecap="butt" stroke-linejoin="miter" stroke-miterlimit="10" stroke-dasharray="" stroke-dashoffset="0" font-family="none" font-weight="none" font-size="none" text-anchor="none" style="mix-blend-mode: normal"><g fill="none" stroke="#000000" stroke-width="16" font-family="sans-serif" font-weight="normal" font-size="12" text-anchor="start"/><path d="M310.57802,150v50M310.57802,200h-100M210.57802,200c-22.09139,0 -40,22.38576 -40,50c0,27.61424 17.90861,50 40,50M210.57802,300h70M280.57802,300c33.13708,0 60,33.57864 60,75c0,41.42136 -26.86292,75 -60,75M280.57802,450h-100M180.57802,450c-6.52958,0 -12.34695,-5.15534 -14.50829,-12.85721c-2.16134,-7.70188 -0.19515,-16.27011 4.9036,-21.36886c5.09875,-5.09875 12.21776,-5.61571 17.75454,-1.28927c5.53678,4.32643 8.28347,12.55244 6.85015,20.51535M195.57802,435v52.5M333.75,337.5h78.75M412.5,150v300M131.25,150h337.5" fill="none" stroke="#000000" stroke-width="16" visibility="hidden"/><path d="M320.57802,200h-10v10h-100l0,-0.08063c-1.91116,0.19405 -4.41851,0.4866 -5.58331,0.78454c-2.01256,0.51479 -3.42056,1.06552 -5.3125,2.0658c-3.83009,2.02499 -6.55601,4.3422 -9.57978,8.1219c-6.22406,7.78007 -9.52442,16.98725 -9.52442,29.10839c0,12.12114 3.30036,21.32831 9.52442,29.10839c6.0631,7.57888 11.87172,11.52842 20.47558,10.89161h70c19.01038,0.63681 38.20176,10.67837 50.23509,25.72004c2.83719,3.54649 5.4471,7.5043 7.77633,11.77996h63.91056v-167.5l-81.92198,0zM422.5,450h-20l0,-102.5h-55.80168c2.49011,8.76708 3.8797,18.10239 3.8797,27.5c0,22.39666 -7.89252,44.43948 -19.76491,59.27996c-6.02446,7.53057 -14.07264,14.36627 -22.20639,18.66663c-8.1707,4.31989 -23.35471,5.89387 -23.35471,5.89387c-0.63052,0.24683 -2.8602,-6.49844 -4.674,-11.91884v13.07838h-75v27.5h-20l0,-27.5h-5c-5.1913,-0.38605 -11.77273,-2.73141 -15.52461,-6.05632c-3.61167,-3.20066 -7.15538,-8.9093 -8.61175,-14.09902c-2.80801,-10.00629 0.48434,-24.16554 7.46061,-31.14181c3.77684,-3.77684 10.20159,-6.72896 15.05982,-7.08175c4.88864,-0.355 11.7265,1.70476 15.92296,4.98387c4.02339,3.14387 7.75859,8.78983 9.3669,13.60652c1.57804,4.72605 0.81129,11.62135 0.81129,11.62135c0.12051,0.58963 -4.68235,1.87839 -9.48521,3.16715h10v5h75l0,0.09807c2.85149,-0.26453 7.42199,-0.7492 9.61401,-1.30989c3.31451,-0.84781 5.97838,-1.88969 9.0667,-3.52251c6.22285,-3.29006 11.1036,-7.43785 15.93701,-13.47961c9.84335,-12.30418 15.38228,-27.76136 15.38228,-46.78606c0,-19.0247 -5.53893,-34.48187 -15.38228,-46.78606c-9.68239,-12.10299 -20.49101,-18.85075 -34.61772,-18.21394h-70c-13.48753,-0.63681 -27.67891,-7.88015 -36.09296,-18.39771c-8.25309,-10.31637 -13.90704,-26.10919 -13.90704,-41.60229c0,-15.4931 5.65395,-31.28592 13.90704,-41.60229c4.21481,-5.26852 10.10817,-10.27363 15.84916,-13.30892c5.77793,-3.05483 15.56981,-3.92925 15.56981,-3.92925c0.63052,-0.24683 2.8602,6.49844 4.674,11.91884v-13.07838l90,0l0,-30h-169.32802v-20h337.5v20l-46.25,0zM185.28152,426.5458c-0.7909,-2.36864 -1.19744,-2.99891 -2.71082,-4.18147c-1.34032,-1.04733 -0.83036,-0.8923 -2.1601,-0.79574c-1.36016,0.09877 -1.04428,-0.0455 -2.3662,1.27641c-3.22123,3.22123 -3.86125,6.19845 -2.34659,11.59592c0.70497,2.51216 1.15062,3.23212 2.62035,4.5346c1.32953,1.17823 0.92157,1.41053 2.25986,1.02449h5v-5h0.47124c-0.07195,-2.89259 -0.26262,-6.94145 -0.76773,-8.4542z" fill-opacity="0" fill="#000000" stroke="#0000ff" stroke-width="0"/></g></svg>