<svg version="1.1" xmlns="http://www.w3.org/2000/svg" xmlns:xlink="http://www.w3.org/1999/xlink" width="600" height="600" viewBox="0,0,600,600"><g fill="none" fill-rule="nonzero" stroke="none" stroke-width="none" stroke-linecap="butt" stroke-linejoin="miter" stroke-miterlimit="10" stroke-dasharray="" stroke-dashoffset="0" font-family="none" font-weight="none" font-size="none" text-anchor="none" style="mix-blend-mode: normal"><g fill="none" stroke="#000000" stroke-width="16" font-family="sans-serif" font-weight="normal" font-size="12" text-anchor="start"/><path d="M412.5,150v300M333.75,300h78.75M263.25,240c23.74776,-3.84638 47.5295,6.67562 60.6555,26.83645c13.126,20.16083 13.126,46.16628 0,66.3271c-13.126,20.16083 -36.90774,30.68283 -60.6555,26.83645M263.25,360c-48.46551,-9.29476 -88.40222,-43.52622 -105,-90M131.25,150h337.5" fill="none" stroke="#000000" stroke-width="16" visibility="hidden"/><path d="M422.5,450h-20l0,-140h-59.52167c-1.50767,9.98844 -5.18583,20.1618 -10.69247,28.61971c-7.3695,11.31915 -18.87374,20.88661 -30.67887,26.10968c-5.92088,2.61964 -12.91357,4.5951 -19.40093,5.4496c-6.47408,0.85274 -17.65016,-0.26461 -17.65016,-0.26461c-0.35323,0.02127 -0.82956,-4.94655 -1.30589,-9.91437l-1.88348,9.82102c-25.49964,-5.07214 -50.01446,-16.94887 -69.07483,-33.28632c-19.06037,-16.33746 -40.5496,-58.94213 -40.5496,-58.94213c-0.84033,-0.92659 15.50676,-11.84552 15.40316,-12.16122c0.0487,0.12234 4.67582,11.74169 7.28887,16.82804c2.625,5.10961 5.40055,9.73639 8.63521,14.41646c6.46732,9.35725 13.6626,17.32321 22.23819,24.67371c17.17381,14.72041 36.8601,24.60679 59.82597,28.82941l-0.02074,0.10815c4.07002,0.22991 11.02064,0.51898 14.48153,0.06312c5.06096,-0.66661 9.28678,-1.8605 13.92056,-3.91067c9.30417,-4.11654 16.2538,-9.8905 22.01031,-18.73218c5.7565,-8.84168 8.22486,-17.53323 8.22486,-27.7074c0,-10.17416 -2.46835,-18.86572 -8.22486,-27.7074c-5.7565,-8.84168 -12.70613,-14.61563 -22.01031,-18.73218c-9.30417,-4.11654 -18.28696,-5.59654 -28.66599,-3.68907l-3.19769,-19.74271c13.36874,-1.93891 28.1507,-0.08109 39.95583,5.14198c11.80513,5.22307 23.30937,14.79053 30.67887,26.10968c5.50664,8.4579 9.18481,18.63126 10.69247,28.61971l59.52167,0l0,-130h-271.25v-20h337.5v20l-46.25,0zM167.14525,265.43135c-0.00026,-0.00065 -0.00039,-0.00097 -0.00039,-0.00097c0.00015,0.00031 0.00028,0.00064 0.00039,0.00097z" fill-opacity="0" fill="#000000" stroke="#0000ff" stroke-width="0"/></g></svg>