<svg version="1.1" xmlns="http://www.w3.org/2000/svg" xmlns:xlink="http://www.w3.org/1999/xlink" width="600" height="600" viewBox="0,0,600,600"><g fill="none" fill-rule="nonzero" stroke="none" stroke-width="none" stroke-linecap="butt" stroke-linejoin="miter" stroke-miterlimit="10" stroke-dasharray="" stroke-dashoffset="0" font-family="none" font-weight="none" font-size="none" text-anchor="none" style="mix-blend-mode: normal"><g fill="none" stroke="#000000" stroke-width="16" font-family="sans-serif" font-weight="normal" font-size="12" text-anchor="start"/><path d="M350,150v100M350,250c-34.73069,-1.97748 -68.87575,8.83316 -94.74145,29.99601c-25.8657,21.16285 -41.27599,50.8975 -42.75855,82.50399M212.5,362.5c-2.72399,54.60744 39.54421,102.5743 98.75916,112.07403c59.21495,9.49972 116.99004,-22.41741 134.99084,-74.57403M150,150h175.5M325.5,150h124.5" fill="none" stroke="#000000" stroke-width="16" visibility="hidden"/><path d="M360,250l-12.71023,0c1.53386,4.77481 2.93045,9.98495 3.05248,9.99412c-0.06566,-0.00211 -8.91412,-0.28628 -12.98116,-0.14686c-4.08037,0.13988 -7.91205,0.44645 -11.93307,0.95141c-8.03865,1.0095 -15.48126,2.64164 -23.1047,5.05529c-15.24375,4.82631 -28.5539,11.91739 -40.7324,21.88162c-24.33412,19.90973 -38.17462,45.69288 -39.10191,75.23297l-0.08085,-0.00379c0.06524,4.09063 0.28926,13.4549 1.00782,18.11596c0.93389,6.0578 2.34396,11.48935 4.4311,17.19943c4.17726,11.42836 10.08534,21.22957 18.30808,30.56092c16.54717,18.77809 38.80199,31.38551 66.68802,35.85921c27.92208,4.47948 53.79296,-0.48384 76.53114,-13.04527c22.667,-12.5221 39.43479,-30.55542 47.42282,-54.91747l18.9057,6.52492c-10.01276,27.79457 -31.13291,51.79813 -56.6574,65.89882c-25.4533,14.06136 -58.07744,20.30675 -89.37031,15.2865c-31.32892,-5.02603 -59.81568,-21.1519 -78.52534,-42.38403c-9.40568,-10.67376 -17.25484,-23.69689 -22.08721,-36.91753c-4.83036,-13.21514 -5.95483,-39.21318 -5.95483,-39.21318c-0.14501,-0.55624 6.92234,-2.06667 12.53932,-3.28541l-13.13609,-0.61617c2.03782,-33.6729 19.0179,-67.35905 46.41519,-89.77501c23.47771,-19.20903 76.65107,-27.56432 91.07383,-29.52666v-82.72977h-190v-20h300v20l-90,0zM350.34262,259.99413c-0.00012,0 -0.00024,0 -0.00037,-0.00001c0.00024,0.00001 0.00037,0.00001 0.00037,0.00001z" fill-opacity="0" fill="#000000" stroke="#0000ff" stroke-width="0"/></g></svg>