<svg version="1.1" xmlns="http://www.w3.org/2000/svg" xmlns:xlink="http://www.w3.org/1999/xlink" width="600" height="600" viewBox="0,0,600,600"><g fill="none" fill-rule="nonzero" stroke="none" stroke-width="none" stroke-linecap="butt" stroke-linejoin="miter" stroke-miterlimit="10" stroke-dasharray="" stroke-dashoffset="0" font-family="none" font-weight="none" font-size="none" text-anchor="none" style="mix-blend-mode: normal"><g fill="none" stroke="#000000" stroke-width="16" font-family="sans-serif" font-weight="normal" font-size="12" text-anchor="start"/><path d="M300,150v112.5M187.5,363.75c0,-55.91883 50.36797,-101.25 112.5,-101.25c62.13203,0 112.5,45.33117 112.5,101.25c0,55.91883 -50.36797,101.25 -112.5,101.25c-62.13203,0 -112.5,-45.33117 -112.5,-101.25zM168.75,150h262.5" fill="none" stroke="#000000" stroke-width="16" visibility="hidden"/><path d="M310,252.88938c29.27305,2.27417 56.80707,14.34424 76.23916,31.83312c21.72446,19.55202 36.26084,48.84112 36.26084,79.0275c0,30.18639 -14.53638,59.47549 -36.26084,79.0275c-21.63207,19.46887 -53.30443,32.2225 -86.23916,32.2225c-32.93473,0 -64.60709,-12.75363 -86.23916,-32.2225c-21.72446,-19.55202 -36.26084,-48.84112 -36.26084,-79.0275c0,-30.18639 14.53638,-59.47549 36.26084,-79.0275c19.43209,-17.48888 46.96611,-29.55895 76.23916,-31.83312v-92.88938h-121.25v-20h262.5v20h-121.25zM227.14013,427.91162c19.08492,17.17642 43.66256,27.08838 72.85987,27.08838c29.1973,0 53.77495,-9.91196 72.85987,-27.08838c18.99253,-17.09328 29.64013,-38.42918 29.64013,-64.16162c0,-25.73244 -10.6476,-47.06834 -29.64013,-64.16162c-19.08492,-17.17642 -43.66256,-27.08838 -72.85987,-27.08838c-29.1973,0 -53.77495,9.91196 -72.85987,27.08838c-18.99253,17.09328 -29.64013,38.42918 -29.64013,64.16162c0,25.73244 10.6476,47.06834 29.64013,64.16162z" fill-opacity="0" fill="#000000" stroke="#0000ff" stroke-width="0"/></g></svg>