<svg version="1.1" xmlns="http://www.w3.org/2000/svg" xmlns:xlink="http://www.w3.org/1999/xlink" width="600" height="600" viewBox="0,0,600,600"><g fill="none" fill-rule="nonzero" stroke="none" stroke-width="none" stroke-linecap="butt" stroke-linejoin="miter" stroke-miterlimit="10" stroke-dasharray="" stroke-dashoffset="0" font-family="none" font-weight="none" font-size="none" text-anchor="none" style="mix-blend-mode: normal"><g fill="none" stroke="#000000" stroke-width="16"><path d="M250,200c-27.61424,0 -50,22.38576 -50,50c0,27.61424 22.38576,50 50,50" visibility="hidden"/><path d="M337.5,300c41.42136,0 75,33.57864 75,75c0,41.42136 -33.57864,75 -75,75" visibility="hidden"/></g><path d="M375,150v50M375,200h-125M250,200c-27.61424,0 -50,22.38576 -50,50c0,27.61424 22.38576,50 50,50M250,300h87.5M337.5,300c41.42136,0 75,33.57864 75,75c0,41.42136 -33.57864,75 -75,75M337.5,450h-125M168.75,150h262.5" fill="none" stroke="#000000" stroke-width="16" visibility="hidden"/><path d="M385,200h-10v10h-125l0,-0.06514c-2.3701,0.17502 -6.22521,0.50004 -8.07199,0.87795c-2.75912,0.5646 -4.94942,1.2499 -7.49475,2.32648c-5.08161,2.14934 -8.85586,4.71476 -12.71754,8.57644c-7.78804,7.78804 -11.71573,16.5203 -11.71573,28.28427c0,11.76397 3.92768,20.49623 11.71573,28.28427c7.78804,7.78804 16.5203,12.15223 28.28427,11.71573h87.5c22.75383,0.4365 45.27157,10.06342 60.10408,24.89592c14.83251,14.83251 24.89592,37.35025 24.89592,60.10408c0,22.75383 -10.06342,45.27157 -24.89592,60.10408c-7.4486,7.4486 -17.14199,14.03609 -27.01517,18.2121c-9.845,4.16408 -29.19338,5.89387 -29.19338,5.89387c-0.54696,0.17212 -2.40182,-6.79706 -3.89552,-12.34411v13.13406h-125v-20h125v0.07376c3.31632,-0.22714 9.8966,-0.73685 13.11036,-1.39448c4.38656,-0.89762 8.1467,-2.07408 12.1875,-3.7832c8.07257,-3.41441 14.54035,-7.81041 20.66408,-13.93414c12.31215,-12.31215 19.03806,-27.29441 19.03806,-45.96194c0,-18.66753 -6.7259,-33.64979 -19.03806,-45.96194c-12.31215,-12.31215 -27.29441,-19.47456 -45.96194,-19.03806h-87.5c-15.85027,-0.4365 -32.11801,-7.2652 -42.42641,-17.57359c-10.3084,-10.3084 -17.57359,-26.57614 -17.57359,-42.42641c0,-15.85027 7.2652,-32.11801 17.57359,-42.42641c5.18655,-5.18655 12.1864,-9.94345 19.06863,-12.85439c6.85404,-2.89901 19.46226,-3.92925 19.46226,-3.92925c0.54696,-0.17212 2.40182,6.79706 3.89552,12.34411l0,-13.13406l115,0v-30h-196.25v-20h262.5v20l-46.25,0z" fill-opacity="0" fill="#000000" stroke="#0000ff" stroke-width="0"/></g></svg>