<svg version="1.1" xmlns="http://www.w3.org/2000/svg" xmlns:xlink="http://www.w3.org/1999/xlink" width="819" height="598" viewBox="0,0,819,598"><g fill="none" fill-rule="nonzero" stroke="#000001" stroke-width="16" stroke-linecap="butt" stroke-linejoin="miter" stroke-miterlimit="10" stroke-dasharray="" stroke-dashoffset="0" font-family="none" font-weight="none" font-size="none" text-anchor="none" style="mix-blend-mode: normal"><g><path d="M484.5,149v50"/><path d="M484.5,199h-125"/><path d="M359.5,199c-27.61424,0 -50,22.38576 -50,50c0,27.61424 22.38576,50 50,50"/><path d="M359.5,199c-27.61424,0 -50,22.38576 -50,50c0,27.61424 22.38576,50 50,50" visibility="hidden"/><path d="M359.5,299h87.5"/><path d="M447,299c41.42136,0 75,33.57864 75,75c0,41.42136 -33.57864,75 -75,75"/><path d="M447,299c41.42136,0 75,33.57864 75,75c0,41.42136 -33.57864,75 -75,75" visibility="hidden"/><path d="M447,449h-125"/></g><path d="M278.25,149h262.5"/></g></svg>