<svg version="1.1" xmlns="http://www.w3.org/2000/svg" xmlns:xlink="http://www.w3.org/1999/xlink" width="819" height="598" viewBox="0,0,819,598"><g fill="none" fill-rule="nonzero" stroke="none" stroke-width="16" stroke-linecap="butt" stroke-linejoin="miter" stroke-miterlimit="10" stroke-dasharray="" stroke-dashoffset="0" font-family="none" font-weight="none" font-size="none" text-anchor="none" style="mix-blend-mode: normal"><path d="M459.5,149v100" stroke="#000001"/><path d="M284.5,374c0,50.55778 30.45527,96.13732 77.16457,115.48494c46.7093,19.34763 100.47403,8.65316 136.22378,-27.09659" stroke="#000001"/><path d="M284.5,374c0,-69.03559 78.35017,-125 175,-125c96.64983,0 175,55.96441 175,125c0,69.03559 -78.35017,125 -175,125c-96.64983,0 -175,-55.96441 -175,-125z" stroke="#000001" visibility="hidden"/><path d="M434.5,499c-82.84271,0 -150,-55.96441 -150,-125v0c0,-69.03559 67.15729,-125 150,-125h50c82.84271,0 150,55.96441 150,125v0c0,69.03559 -67.15729,125 -150,125z" stroke="#000001" visibility="hidden"/><path d="M284.5,374v0c0,-69.03559 67.15729,-125 150,-125h25" stroke="#000001"/><path d="M497.88835,462.38835c-35.74975,35.74975 -89.51448,46.44422 -136.22378,27.09659c-46.7093,-19.34763 -77.16457,-64.92716 -77.16457,-115.48494M284.5,374c0,-69.03559 67.15729,-125 150,-125h25" stroke="#ffff01" visibility="hidden"/><path d="M433.87184,435.87184c0,-20.71068 16.78932,-37.5 37.5,-37.5c20.71068,0 37.5,16.78932 37.5,37.5c0,20.71068 -16.78932,37.5 -37.5,37.5c-20.71068,0 -37.5,-16.78932 -37.5,-37.5z" stroke="#000001"/><path d="M497.88835,462.38835c-35.74975,35.74975 -89.51448,46.44422 -136.22378,27.09659c-46.7093,-19.34763 -77.16457,-64.92716 -77.16457,-115.48494c0,-69.03559 67.15729,-125 150,-125h25" stroke="#000001"/><path d="M240.75,149h337.5" stroke="#000001"/></g></svg>