<svg version="1.1" xmlns="http://www.w3.org/2000/svg" xmlns:xlink="http://www.w3.org/1999/xlink" width="600" height="600" viewBox="0,0,600,600"><g fill="none" fill-rule="nonzero" stroke="none" stroke-width="none" stroke-linecap="butt" stroke-linejoin="miter" stroke-miterlimit="10" stroke-dasharray="" stroke-dashoffset="0" font-family="none" font-weight="none" font-size="none" text-anchor="none" style="mix-blend-mode: normal"><path d="M175,375c0,50.55778 30.45527,96.13732 77.16457,115.48494c46.7093,19.34763 100.47403,8.65316 136.22378,-27.09659" fill="none" stroke="#000000" stroke-width="16" visibility="hidden"/><path d="M175,375c0,-69.03559 78.35017,-125 175,-125c96.64983,0 175,55.96441 175,125c0,69.03559 -78.35017,125 -175,125c-96.64983,0 -175,-55.96441 -175,-125z" fill="none" stroke="#000000" stroke-width="16" visibility="hidden"/><path d="M325,500c-82.84271,0 -150,-55.96441 -150,-125v0c0,-69.03559 67.15729,-125 150,-125h50c82.84271,0 150,55.96441 150,125v0c0,69.03559 -67.15729,125 -150,125z" fill="none" stroke="#000000" stroke-width="16" visibility="hidden"/><path d="M175,375v0c0,-69.03559 67.15729,-125 150,-125h25" fill="none" stroke="#000000" stroke-width="16" visibility="hidden"/><path d="M388.38835,463.38835c-35.74975,35.74975 -89.51448,46.44422 -136.22378,27.09659c-46.7093,-19.34763 -77.16457,-64.92716 -77.16457,-115.48494M175,375c0,-69.03559 67.15729,-125 150,-125h25" fill="none" stroke="#ffff00" stroke-width="16" visibility="hidden"/><path d="M350,150v100M388.38835,463.38835c-35.74975,35.74975 -89.51448,46.44422 -136.22378,27.09659c-46.7093,-19.34763 -77.16457,-64.92716 -77.16457,-115.48494c0,-69.03559 67.15729,-125 150,-125h25M324.37184,436.87184c0,-20.71068 16.78932,-37.5 37.5,-37.5c20.71068,0 37.5,16.78932 37.5,37.5c0,20.71068 -16.78932,37.5 -37.5,37.5c-20.71068,0 -37.5,-16.78932 -37.5,-37.5zM131.25,150h337.5" fill="none" stroke="#000000" stroke-width="16" visibility="hidden"/><path d="M360,250h-10v10h-25c-39.67356,-0.31543 -73.79191,12.73365 -99.66417,34.29387c-25.70904,21.4242 -40.33583,48.55473 -40.33583,80.70613c0,23.7689 6.70222,44.91545 19.38099,63.89057c12.67877,18.97512 29.65081,33.2596 51.61041,42.35557c21.9596,9.09597 44.0613,10.99636 66.44398,6.54416c7.81037,-1.55358 15.31322,-3.7886 22.47925,-6.76145c-6.41978,-2.49327 -12.27252,-6.21159 -16.63037,-10.56944c-8.04634,-8.04634 -13.91243,-21.18908 -13.91243,-33.58757c0,-12.39849 5.86609,-25.54123 13.91243,-33.58757c8.04634,-8.04634 21.18908,-13.91243 33.58757,-13.91243c12.39849,0 25.54123,5.86609 33.58757,13.91243c8.04634,8.04634 13.91243,21.18908 13.91243,33.58757c0,12.39849 -5.86609,25.54123 -13.91243,33.58757l0,0c-0.00009,0.00009 -0.00018,0.00018 -0.00027,0.00027c-0.21855,0.21855 -0.44087,0.43549 -0.66683,0.65075c-19.01814,18.43095 -43.63193,31.35794 -68.45513,36.29558c-25.11444,4.99557 -53.24976,2.56938 -77.99946,-7.68228c-24.7497,-10.25166 -46.35994,-28.43076 -60.58613,-49.72176c-14.22619,-21.291 -22.7516,-48.2131 -22.7516,-75.00198c0,-36.88418 18.95186,-72.25366 47.53214,-96.07056c28.41706,-23.68089 69.29871,-38.61401 112.46786,-38.92944l15,0v-80h-208.75v-20h337.5v20l-108.75,0zM342.42641,456.31728c5.52599,5.52599 11.13325,8.05456 19.44544,8.05456c8.31219,0 13.91945,-2.52857 19.44544,-8.05456c5.52599,-5.52599 8.05456,-11.13325 8.05456,-19.44544c0,-8.31219 -2.52857,-13.91945 -8.05456,-19.44544c-5.52599,-5.52599 -11.13325,-8.05456 -19.44544,-8.05456c-8.31219,0 -13.91945,2.52857 -19.44544,8.05456c-5.52599,5.52599 -8.05456,11.13325 -8.05456,19.44544c0,8.31219 2.52857,13.91945 8.05456,19.44544z" fill-opacity="0" fill="#000000" stroke="#0000ff" stroke-width="0"/></g></svg>