<svg version="1.1" xmlns="http://www.w3.org/2000/svg" xmlns:xlink="http://www.w3.org/1999/xlink" width="600" height="600" viewBox="0,0,600,600"><g fill="none" fill-rule="nonzero" stroke="none" stroke-width="none" stroke-linecap="butt" stroke-linejoin="miter" stroke-miterlimit="10" stroke-dasharray="" stroke-dashoffset="0" font-family="none" font-weight="none" font-size="none" text-anchor="none" style="mix-blend-mode: normal"><path d="M375,150v300M375,275c-39.86422,-17.33227 -85.13578,-17.33227 -125,0M250,275c-25.83352,13.06847 -39.77205,41.08186 -37.27514,74.91487c2.4969,33.83301 21.10963,69.15508 49.77514,94.46013M150,150h300" fill="none" stroke="#000000" stroke-width="16" visibility="hidden"/><path d="M385,450h-20v-168.19934c-2.89227,-1.10521 -6.06357,-2.2777 -8.20055,-2.95446c-4.88463,-1.54691 -9.58152,-2.77134 -14.56831,-3.80295c-9.97176,-2.06284 -19.59551,-3.04246 -29.73114,-3.04246c-20.27676,0 -39.5583,3.81425 -58.48549,12.15789c-2.14839,1.24932 -5.57385,3.28373 -7.23345,4.49715c-2.5163,1.8398 -4.55131,3.60228 -6.71837,5.81006c-4.33892,4.42046 -7.51056,8.91027 -10.3712,14.65954c-5.78881,11.63424 -8.14881,24.40245 -6.99376,40.05343c2.34977,31.83942 18.86919,63.81176 46.42024,87.6993l-13.23595,14.99366c-29.77997,-26.72256 -50.48602,-65.39434 -53.13005,-101.22095c-1.34185,-18.18203 2.01896,-36.33702 9.03357,-50.43484c3.54106,-7.11676 8.54179,-14.19519 14.00399,-19.76004c5.46132,-5.56395 17.07388,-12.46094 17.07388,-12.46094c0.35234,-0.3055 4.57833,4.9035 8.12647,9.28169l-4.97715,-11.44745c20.92828,-8.98028 44.20586,-13.8285 66.48726,-13.8285c15.32153,0 39.12457,6.14661 52.5,9.98655l0,-101.98735h-215v-20h300v20l-65,0z" fill-opacity="0" fill="#000000" stroke="#0000ff" stroke-width="0"/></g></svg>