<svg version="1.1" xmlns="http://www.w3.org/2000/svg" xmlns:xlink="http://www.w3.org/1999/xlink" width="600" height="600" viewBox="0,0,600,600"><g fill="none" fill-rule="nonzero" stroke="none" stroke-width="none" stroke-linecap="butt" stroke-linejoin="miter" stroke-miterlimit="10" stroke-dasharray="" stroke-dashoffset="0" font-family="none" font-weight="none" font-size="none" text-anchor="none" style="mix-blend-mode: normal"><g fill="none" stroke="#000000" stroke-width="16" font-family="sans-serif" font-weight="normal" font-size="12" text-anchor="start"/><path d="M375,150v150v150M375,300l-180,75M195,243.75c0,-18.75 18.75,-37.5 37.5,-37.5c37.5,0 142.5,93.75 142.5,93.75M157.5,150h285" fill="none" stroke="#000000" stroke-width="16" visibility="hidden"/><path d="M385,450h-20l0,-135l-166.15385,69.23077l-7.69231,-18.46154l167.26523,-69.69385c-31.70151,-26.11233 -100.05492,-79.82538 -125.91908,-79.82538c-7.13893,0 -12.79697,2.8766 -18.71018,8.78982c-5.91322,5.91322 -9.31768,11.57125 -8.78982,18.71018h-20c0.52786,-11.61107 6.4984,-24.70303 14.64768,-32.85232c8.14928,-8.14928 21.24125,-14.64768 32.85232,-14.64768c33.02935,0 105.87195,61.34947 132.5,84.79154v-121.04154h-207.5v-20h285v20l-57.5,0z" fill-opacity="0" fill="#000000" stroke="#0000ff" stroke-width="0"/></g></svg>