<svg version="1.1" xmlns="http://www.w3.org/2000/svg" xmlns:xlink="http://www.w3.org/1999/xlink" width="600" height="600" viewBox="0,0,600,600"><g fill="none" fill-rule="nonzero" stroke="none" stroke-width="none" stroke-linecap="butt" stroke-linejoin="miter" stroke-miterlimit="10" stroke-dasharray="" stroke-dashoffset="0" font-family="none" font-weight="none" font-size="none" text-anchor="none" style="mix-blend-mode: normal"><path d="M150,300c14.48959,54.00666 56.25269,96.45101 110.01786,111.81249c53.76517,15.36148 111.64783,1.38735 152.48214,-36.81249" fill="none" stroke="#000000" stroke-width="16" visibility="hidden"/><path d="M412.5,281.25c-9.28118,-30.24119 -39.29025,-49.14172 -70.57363,-44.44921c-31.28338,4.69251 -54.42637,31.56585 -54.42637,63.19921c0,31.63337 23.14298,58.50671 54.42637,63.19921c31.28338,4.69251 61.29245,-14.20803 70.57363,-44.44921" fill="none" stroke="#000000" stroke-width="16" visibility="hidden"/><path d="M187.5,150c28.06759,5.50693 50.8112,26.04231 59.14628,53.40364c8.33508,27.36133 0.90314,57.08909 -19.32726,77.30904c-20.23041,20.21996 -49.962,27.63654 -77.31902,19.28732M150,300c14.48959,54.00666 56.25269,96.45101 110.01786,111.81249c53.76517,15.36148 111.64783,1.38735 152.48214,-36.81249M412.5,150v300M150,187.5c0,-20.71068 16.78932,-37.5 37.5,-37.5c20.71068,0 37.5,16.78932 37.5,37.5c0,20.71068 -16.78932,37.5 -37.5,37.5c-20.71068,0 -37.5,-16.78932 -37.5,-37.5zM318.75,150h150" fill="none" stroke="#000000" stroke-width="16" visibility="hidden"/><path d="M256.21227,200.48955c9.08505,29.82322 0.22667,65.25674 -21.82401,87.29603c-11.09211,11.08638 -26.00368,19.33685 -40.63593,22.98688c-7.33233,1.82906 -15.5847,2.75557 -23.20916,2.57691c-1.71814,-0.04026 -3.719,-0.23307 -5.78745,-0.50753c0.41119,1.1178 0.80542,2.14263 1.16548,3.01202c2.50893,6.05801 5.25299,11.62603 8.49021,17.25599c6.47272,11.25691 13.95376,21.08375 22.99721,30.27471c18.10735,18.40272 39.73707,31.49287 65.35644,38.81269c50.00376,14.28679 101.44486,3.13197 139.73493,-31.54759v-210.64966h-83.75v-20h150v20l-46.25,0v290h-20v-54.18219c-41.6813,29.30296 -96.03461,39.66556 -145.22935,25.60992c-28.1458,-8.04166 -54.28021,-23.85442 -74.1181,-44.01591c-19.83789,-20.16149 -40.28059,-70.39819 -40.28059,-70.39819c-0.34983,-0.45765 3.16203,-2.75333 7.02112,-5.11565c0.30504,-5.48705 0.70814,-11.766 0.3495,-11.89341c0.39247,0.08657 14.56867,3.20499 20.76912,3.35028c6.27658,0.14708 11.85095,-0.47882 17.89995,-1.98775c12.1304,-3.02594 22.19984,-8.59374 31.33813,-17.72732c18.41014,-18.40063 24.41563,-42.42262 16.83052,-67.32206c-0.93125,-3.057 -2.02313,-5.99936 -3.26967,-8.81712c-2.10598,9.06638 -6.82972,17.69364 -12.72305,23.58696c-8.04634,8.04634 -21.18908,13.91243 -33.58757,13.91243c-12.39849,0 -25.54123,-5.86609 -33.58757,-13.91243c-8.04634,-8.04634 -13.91243,-21.18908 -13.91243,-33.58757c0,-12.39849 5.86609,-25.54123 13.91243,-33.58757c8.04634,-8.04634 21.18908,-13.91243 33.58757,-13.91243c12.39849,0 25.54123,5.86609 33.58757,13.91243c0.12443,0.12443 0.24835,0.25009 0.37172,0.37694c16.25719,11.22532 29.06476,27.52766 34.75297,46.20019zM150.24258,290.00458c-0.00553,-0.00122 -0.00832,-0.00184 -0.00832,-0.00184c0.00282,0.00025 0.00559,0.00087 0.00832,0.00184zM168.05456,206.94544c5.52599,5.52599 11.13325,8.05456 19.44544,8.05456c8.31219,0 13.91945,-2.52857 19.44544,-8.05456c5.52599,-5.52599 8.05456,-11.13325 8.05456,-19.44544c0,-8.31219 -2.52857,-13.91945 -8.05456,-19.44544c-0.68247,-0.68247 -1.36618,-1.31922 -2.05607,-1.91114c-5.52995,-2.84667 -11.61658,-4.92275 -18.20419,-6.13513c-7.86766,0.162 -13.28713,2.70279 -18.63062,8.04627c-5.52599,5.52599 -8.05456,11.13325 -8.05456,19.44544c0,8.31219 2.52857,13.91945 8.05456,19.44544z" fill-opacity="0" fill="#000000" stroke="#0000ff" stroke-width="0"/></g></svg>