<svg version="1.1" xmlns="http://www.w3.org/2000/svg" xmlns:xlink="http://www.w3.org/1999/xlink" width="600" height="600" viewBox="0,0,600,600"><g fill="none" fill-rule="nonzero" stroke="none" stroke-width="none" stroke-linecap="butt" stroke-linejoin="miter" stroke-miterlimit="10" stroke-dasharray="" stroke-dashoffset="0" font-family="none" font-weight="none" font-size="none" text-anchor="none" style="mix-blend-mode: normal"><path d="M175,318.75c0,-72.48737 78.35017,-131.25 175,-131.25c96.64983,0 175,58.76263 175,131.25c0,72.48737 -78.35017,131.25 -175,131.25c-96.64983,0 -175,-58.76263 -175,-131.25z" fill="none" stroke="#000000" stroke-width="16" visibility="hidden"/><path d="M325,450c-82.84271,0 -150,-58.76263 -150,-131.25v0c0,-72.48737 67.15729,-131.25 150,-131.25h50c82.84271,0 150,58.76263 150,131.25v0c0,72.48737 -67.15729,131.25 -150,131.25z" fill="none" stroke="#000000" stroke-width="16" visibility="hidden"/><path d="M324.37184,380.62184c0,-20.71068 16.78932,-37.5 37.5,-37.5c20.71068,0 37.5,16.78932 37.5,37.5c0,20.71068 -16.78932,37.5 -37.5,37.5c-20.71068,0 -37.5,-16.78932 -37.5,-37.5z" fill="none" stroke="#000000" stroke-width="16" visibility="hidden"/><path d="M324.37184,380.62184c0,-41.42136 33.57864,-75 75,-75c41.42136,0 75,33.57864 75,75c0,41.42136 -33.57864,75 -75,75c-41.42136,0 -75,-33.57864 -75,-75z" fill="none" stroke="#000000" stroke-width="16" visibility="hidden"/><path d="M324.37184,380.62184v10" fill="none" stroke="#000000" stroke-width="16" visibility="hidden"/><g fill="none" stroke="#000000" stroke-width="16" font-family="sans-serif" font-weight="normal" font-size="12" text-anchor="start"/><path d="M350,112.5v75M175,318.75c0,50.55778 30.45527,96.13732 77.16457,115.48494c46.7093,19.34763 100.47403,8.65316 136.22378,-27.09659M175,318.75v0c0,-72.48737 67.15729,-131.25 150,-131.25h25M388.38835,407.13835c12.00152,-12.00152 14.4458,-30.5677 5.95945,-45.2665c-8.48636,-14.6988 -25.78729,-21.86508 -42.18167,-17.47222c-16.39438,4.39286 -27.79429,19.24951 -27.79429,36.22222M424.37184,493.12184c-41.42136,0 -100,-71.07864 -100,-112.5M131.25,112.5h337.5" fill="none" stroke="#000000" stroke-width="16" visibility="hidden"/><path d="M360,187.5h-10v10h-25c-39.59756,-0.34449 -73.61052,13.33135 -99.48097,35.968c-25.75235,22.5333 -41.06787,51.31586 -40.51903,85.282h-0.04502c0.16809,3.56699 0.64432,12.62927 1.33291,17.19206c0.86815,5.7526 2.07519,11.03371 3.76076,16.52767c3.36968,10.98321 8.00473,20.70089 14.33235,30.17084c12.67877,18.97512 29.65081,33.2596 51.61041,42.35557c21.9596,9.09596 44.0613,10.99635 66.44398,6.54416c2.67832,-0.53275 5.32049,-1.14564 7.9253,-1.84093c-1.87267,-3.22238 -3.60285,-6.43934 -5.16306,-9.61327c-6.50242,-13.2279 -9.80012,-35.05276 -9.80012,-35.05276c-0.01087,-1.51774 0.00327,-2.9884 0.04062,-4.4115h-1.06629c0.13278,-4.61288 0.96487,-9.42615 2.37833,-14.01794c1.85808,-10.53528 5.34837,-16.18102 8.70509,-16.46507c5.91229,-6.94463 14.97832,-12.94825 24.12267,-15.39847c9.82566,-2.63278 21.62432,-1.66737 30.47137,1.9972c8.84704,3.66457 17.87261,11.32483 22.95874,20.13428c5.08614,8.80945 7.20734,20.45595 5.95742,29.94999c-0.62865,4.77503 -2.25993,10.24076 -4.40164,14.63152c-2.13342,4.37377 -7.1877,10.06901 -7.1877,10.06901c-0.20326,0.34391 -4.59552,-2.02006 -8.98779,-4.38403l7.07107,7.07107c-10.18577,10.00978 -22.01756,18.42708 -34.65038,24.86201c1.79632,2.29061 3.66331,4.5575 5.59735,6.79643c19.04411,22.04643 40.15152,38.17858 57.96546,37.25398v20c-23.60742,-0.9246 -52.50001,-20.33177 -73.10056,-44.18c-3.28127,-3.79856 -6.46476,-7.79113 -9.48797,-11.89219c-5.10709,1.70089 -10.27206,3.07718 -15.44613,4.10636c-25.11444,4.99557 -53.24976,2.56938 -77.99946,-7.68228c-24.7497,-10.25166 -46.35995,-28.43076 -60.58613,-49.72176c-14.22619,-21.291 -21.0663,-69.44628 -21.0663,-69.44628c-0.42265,-0.87963 8.52295,-3.75501 14.02716,-5.5557h-15.71247c0.54884,-38.52123 18.81196,-75.36368 47.34894,-100.33353c28.41887,-24.86651 69.40591,-40.57198 112.65106,-40.91647l15,0v-55h-208.75v-20h337.5v20l-108.75,0zM381.31728,400.06728l0.10875,0.10875c1.80294,-2.34158 4.28647,-5.69532 5.16223,-7.49073c1.42683,-2.92516 2.1265,-5.26994 2.54832,-8.47399c0.85102,-6.46413 -0.04881,-11.45011 -3.44904,-17.33947c-3.40022,-5.88936 -7.2683,-9.16163 -13.2919,-11.65669c-6.02361,-2.49506 -11.0726,-2.91636 -17.64132,-1.15627c-6.56872,1.76008 -10.73063,4.64943 -14.69969,9.82202c-3.96907,5.17259 -5.97559,9.9405 -5.68278,16.74094l-0.09386,0c0.41738,3.70925 1.25611,10.28946 2.3093,13.98714c1.54555,5.42632 3.66388,10.76456 6.55901,16.65411c1.89667,3.85841 4.01075,7.69847 6.32735,11.50292c11.59434,-5.43615 22.25287,-12.91772 31.84363,-22.69874z" fill-opacity="0" fill="#000000" stroke="#0000ff" stroke-width="0"/></g></svg>