<svg version="1.1" xmlns="http://www.w3.org/2000/svg" xmlns:xlink="http://www.w3.org/1999/xlink" width="600" height="600" viewBox="0,0,600,600"><g fill="none" fill-rule="nonzero" stroke="none" stroke-width="none" stroke-linecap="butt" stroke-linejoin="miter" stroke-miterlimit="10" stroke-dasharray="" stroke-dashoffset="0" font-family="none" font-weight="none" font-size="none" text-anchor="none" style="mix-blend-mode: normal"><path d="M225,150c-28.89023,8.79268 -46.14025,38.34589 -39.58925,67.82539c6.551,29.4795 34.69415,48.94534 64.58925,44.67461" fill="none" stroke="#000000" stroke-width="16" visibility="hidden"/><path d="M225,150c-32.93089,-10.09881 -68.74575,-2.17911 -94.34821,20.8631c-25.60246,23.04221 -37.23797,57.82785 -30.65179,91.6369" fill="none" stroke="#000000" stroke-width="16" visibility="hidden"/><path d="M185.41075,217.82539c-10.08197,1.50747 -19.03824,7.25397 -24.61029,15.79042c-5.57205,8.53645 -7.22807,19.04808 -4.55046,28.88419" fill="none" stroke="#000000" stroke-width="16" visibility="hidden"/><path d="M225,150c-28.89023,8.79268 -46.14025,38.34589 -39.58925,67.82539c6.551,29.4795 34.69415,48.94534 64.58925,44.67461M250,262.5c-30.11577,16.73098 -41.71137,54.21307 -26.30432,85.02716c15.40705,30.81409 52.35007,44.02686 83.80432,29.97284M307.5,377.5c40.06474,-12.22519 73.44806,-40.195 92.5,-77.5M207.27904,173.91685c0,-13.80712 11.19288,-25 25,-25c13.80712,0 25,11.19288 25,25c0,13.80712 -11.19288,25 -25,25c-13.80712,0 -25,-11.19288 -25,-25zM400,150v300M300,150h168.75" fill="none" stroke="#000000" stroke-width="16" visibility="hidden"/><path d="M195.17262,215.65608c2.85515,12.84819 9.28212,21.89379 19.46728,28.93858c10.18516,7.04479 20.97181,10.25398 33.94588,8.00584l1.60665,11.24654c3.1494,3.29397 6.07017,6.38658 6.27089,6.28293c-0.16239,0.10292 -7.6318,4.84003 -10.40602,7.19157c-2.79449,2.36872 -4.98551,4.63152 -7.23206,7.43816c-4.48734,5.60607 -7.39636,11.14386 -9.49517,17.92815c-4.22277,13.64987 -3.50664,26.73413 3.30988,40.36717c6.81652,13.63304 16.85425,22.0565 30.30781,26.8682c13.45356,4.8117 26.72392,5.03912 40.47284,-1.55331l8.1588,18.26017c-17.70533,7.46159 -38.63361,8.10964 -55.36688,2.12494c-16.73328,-5.9847 -32.87058,-19.57467 -41.46111,-36.75573c-8.59053,-17.18106 -9.78012,-38.24488 -4.52791,-55.22232c2.63868,-8.52937 7.31232,-17.42503 12.98775,-24.51539c0.44609,-0.55731 0.93985,-1.12627 1.47098,-1.70158c-7.85544,-1.99878 -15.23078,-5.23607 -21.41946,-9.51661c-12.99794,-8.99032 -23.91804,-24.41739 -27.61389,-41.0487c-3.69585,-16.63131 -0.33734,-35.23141 7.6296,-48.88059c4.00372,-6.85928 9.87125,-13.70823 16.1746,-18.75734c3.89875,-3.12297 10.38955,-6.2833 14.75371,-8.23187c5.40694,-3.14172 11.98732,-5.20805 18.07225,-5.20805c8.94671,0 18.96445,4.46698 24.74874,10.25126c5.78429,5.78429 10.25126,15.80203 10.25126,24.74874c0,8.94671 -4.46698,18.96445 -10.25126,24.74874c-5.78429,5.78429 -15.80203,10.25126 -24.74874,10.25126c-8.94671,0 -18.96445,-4.46698 -24.74874,-10.25126c-3.6307,-3.6307 -6.74239,-8.92931 -8.55618,-14.58406c-4.98391,9.78447 -6.40049,19.87911 -3.80151,31.57456zM256.46602,270.12828c-0.00083,0.00064 -0.00173,0.00121 -0.00269,0.0017c0.00179,-0.00113 0.00269,-0.0017 0.00269,-0.0017zM318.32674,362.969c4.55142,-1.9099 8.76325,-3.93333 13.07476,-6.2763c8.62148,-4.68512 16.31831,-9.92941 23.80611,-16.20297c14.38522,-12.05248 25.95324,-26.06751 34.7924,-42.91081l0,-137.57891h-90v-20h168.75v20l-58.75,0v290h-20v-116.58314c-6.66535,8.228 -14.05499,15.79021 -21.948,22.40327c-16.48427,13.81114 -54.1298,29.34507 -54.1298,29.34507c-0.81024,0.5532 -10.04643,-16.95554 -10.29116,-16.8864c0,0 0,0 0,0c-0.0003,0.0001 -0.00045,0.00015 -0.00045,0.00015c0.00015,-0.00006 0.0003,-0.00011 0.00045,-0.00015c0.07746,-0.02597 10.16003,-3.40651 14.6957,-5.30981zM221.67244,184.52345c3.26393,3.26393 5.74619,4.3934 10.6066,4.3934c4.86041,0 7.34267,-1.12946 10.6066,-4.3934c3.26393,-3.26393 4.3934,-5.74619 4.3934,-10.6066c0,-4.86041 -1.12946,-7.34267 -4.3934,-10.6066c-3.26393,-3.26393 -5.74619,-4.3934 -10.6066,-4.3934c-1.35321,0 -2.52208,0.08755 -3.5748,0.28434c-0.91197,0.34296 -2.35889,0.89404 -3.88495,1.50275c-1.04065,0.65299 -2.04958,1.50903 -3.14685,2.60631c-3.26393,3.26393 -4.3934,5.74619 -4.3934,10.6066c0,4.86041 1.12946,7.34267 4.3934,10.6066z" fill-opacity="0" fill="#000000" stroke="#0000ff" stroke-width="0"/></g></svg>