<svg version="1.1" xmlns="http://www.w3.org/2000/svg" xmlns:xlink="http://www.w3.org/1999/xlink" width="819" height="673" viewBox="0,0,819,673"><g fill="none" fill-rule="nonzero" stroke="#000100" stroke-width="16" stroke-linecap="butt" stroke-linejoin="miter" stroke-miterlimit="10" stroke-dasharray="" stroke-dashoffset="0" font-family="none" font-weight="none" font-size="none" text-anchor="none" style="mix-blend-mode: normal"><path d="M522,299l-187.5,0.10967"/><path d="M294.5,339.10967c0,-21.95266 17.90861,-39.7488 40,-39.7488c22.09139,0 40,17.79614 40,39.7488c0,21.95266 -17.90861,39.7488 -40,39.7488c-22.09139,0 -40,-17.79614 -40,-39.7488z"/><path d="M522,186.5v289.11958"/><path d="M-25.42667,500.55025c0,-22.09139 17.90861,-40 40,-40c22.09139,0 40,17.90861 40,40c0,22.09139 -17.90861,40 -40,40c-22.09139,0 -40,-17.90861 -40,-40z" visibility="hidden"/><path d="M272,186.5h302.5"/><path d="M359.5,363.11958h0" visibility="hidden"/><path d="M334.5,299.10967l0,0.2512"/></g></svg>