<svg version="1.1" xmlns="http://www.w3.org/2000/svg" xmlns:xlink="http://www.w3.org/1999/xlink" width="819" height="598" viewBox="0,0,819,598"><g fill="none" fill-rule="nonzero" stroke="#000100" stroke-width="16" stroke-linecap="butt" stroke-linejoin="miter" stroke-miterlimit="10" stroke-dasharray="" stroke-dashoffset="0" font-family="none" font-weight="none" font-size="none" text-anchor="none" style="mix-blend-mode: normal"><g><path d="M465.75,186.5h125" visibility="hidden"/><path d="M465.75,311.5h125" visibility="hidden"/><path d="M590.75,186.5c34.5178,0 62.5,27.9822 62.5,62.5c0,34.5178 -27.9822,62.5 -62.5,62.5" visibility="hidden"/><path d="M465.75,186.5v125" visibility="hidden"/><path d="M465.75,186.5v300"/></g><g visibility="hidden"><path d="M466.56967,186.5h125"/><path d="M466.56967,311.5h125"/><path d="M591.56967,186.5c34.5178,0 62.5,27.9822 62.5,62.5c0,34.5178 -27.9822,62.5 -62.5,62.5"/><path d="M466.56967,186.5v125"/><path d="M466.56967,186.5v300"/></g><g transform="translate(654.69717,-279.41582) rotate(90.2)"><path d="M466.56967,186.5h125"/><path d="M466.56967,311.5h125"/><path d="M591.56967,186.5c34.5178,0 62.5,27.9822 62.5,62.5c0,34.5178 -27.9822,62.5 -62.5,62.5"/><path d="M466.56967,186.5v125"/></g><path transform="translate(-26.06965,-201.4759) rotate(30)" d="M452.92433,186.5l227.33167,-131.25"/></g></svg>