<svg version="1.1" xmlns="http://www.w3.org/2000/svg" xmlns:xlink="http://www.w3.org/1999/xlink" width="819" height="598" viewBox="0,0,819,598"><g fill="none" fill-rule="nonzero" stroke="#000100" stroke-width="16" stroke-linecap="butt" stroke-linejoin="miter" stroke-miterlimit="10" stroke-dasharray="" stroke-dashoffset="0" font-family="none" font-weight="none" font-size="none" text-anchor="none" style="mix-blend-mode: normal"><path d="M409.5,149v300"/><g><path d="M274.5,274c0,-41.42136 0,-35 0,-87.5c0,-22.5 0.03695,-39.70204 0,-37.5"/><path d="M274.5,274c0,41.42136 30.22078,75 67.5,75c37.27922,0 67.5,-33.57864 67.5,-75" visibility="hidden"/></g><g><path d="M409.5,317.75c0,-41.42136 33.57864,-75 75,-75c41.42136,0 75,33.57864 75,75" visibility="hidden"/><path d="M452.80363,385.72308c23.22788,10.83134 50.37845,9.0518 71.99384,-4.71873c21.61539,-13.77052 34.70253,-37.62523 34.70253,-63.25436"/></g><path d="M274.5,274c0,41.42136 30.22078,75 67.5,75c37.27922,0 55,-25 67.5,-50c12.5,-25 33.57864,-56.25 75,-56.25c41.42136,0 75,33.57864 75,75"/><path d="M222,149h375"/><path d="M409.5,274c-2.86587,-71.74892 -63.24291,-127.65359 -135,-125" visibility="hidden"/><path d="M342,199c-21.83709,-7.17696 -44.541,-11.38138 -67.5,-12.5" visibility="hidden"/><path d="M342,199c-21.83709,-7.17696 -44.541,-11.38138 -67.5,-12.5" visibility="hidden"/><path d="M222,149h375"/><path d="M222,149h375"/><path d="M222,149h375"/><path d="M222,149h375"/><path d="M222,149h375"/><path d="M222,149h375"/><path d="M222,149h375"/><path d="M222,149h375"/><path d="M222,149h375"/><path d="M222,149h375"/><path d="M222,149h375"/><path d="M222,149h375"/><path d="M222,149h375"/><path d="M222,149h375"/><path d="M222,149h375"/><path d="M222,149h375"/><path d="M222,149h375"/><path d="M222,149h375"/><path d="M222,149h375"/><path d="M222,149h375"/><path d="M222,149h375"/><path d="M222,149h375"/><path d="M222,149h375"/><path d="M222,149h375"/><path d="M222,149h375"/><path d="M222,149h375"/><path d="M222,149h375"/><path d="M222,149h375"/><path d="M222,149h375"/><path d="M222,149h375"/><path d="M222,149h375"/><path d="M222,149h375"/><path d="M222,149h375"/><path d="M222,149h375"/><path d="M222,149h375"/><path d="M222,149h375"/><path d="M222,149h375"/><path d="M222,149h375"/><path d="M222,149h375"/><path d="M222,149h375"/><path d="M222,149h375"/><path d="M222,149h375"/><path d="M222,149h375"/><path d="M222,149h375"/><path d="M222,149h375"/><path d="M222,149h375"/><path d="M222,149h375"/><path d="M222,149h375"/><path d="M222,149h375"/><path d="M222,149h375"/><path d="M222,149h375"/><path d="M222,149h375"/><path d="M222,149h375"/><path d="M222,149h375"/><path d="M222,149h375"/><path d="M222,149h375"/><path d="M222,149h375"/><path d="M222,149h375"/><path d="M222,149h375"/><path d="M222,149h375"/><path d="M222,149h375"/><path d="M222,149h375"/><path d="M222,149h375"/><path d="M222,149h375"/><path d="M222,149h375"/><path d="M222,149h375"/><path d="M222,149h375"/><path d="M222,149h375"/><path d="M222,149h375"/><path d="M222,149h375"/><path d="M222,149h375"/><path d="M222,149h375"/><path d="M222,149h375"/><path d="M222,149h375"/><path d="M222,149h375"/><path d="M222,149h375"/><path d="M222,149h375"/><path d="M222,149h375"/><path d="M222,149h375"/><path d="M222,149h375"/><path d="M222,149h375"/><path d="M222,149h375"/><path d="M222,149h375"/><path d="M222,149h375"/><path d="M222,149h375"/><path d="M222,149h375"/><path d="M222,149h375"/><path d="M222,149h375"/><path d="M222,149h375"/><path d="M222,149h375"/><path d="M222,149h375"/><path d="M222,149h375"/><path d="M222,149h375"/><path d="M222,149h375"/><path d="M222,149h375"/><path d="M222,149h375"/><path d="M222,149h375"/><path d="M222,149h375"/><path d="M222,149h375"/><path d="M222,149h375"/><path d="M222,149h375"/><path d="M222,149h375"/><path d="M222,149h375"/><path d="M222,149h375"/><path d="M222,149h375"/><path d="M222,149h375"/><path d="M222,149h375"/><path d="M222,149h375"/><path d="M222,149h375"/><path d="M222,149h375"/><path d="M222,149h375"/><path d="M222,149h375"/><path d="M222,149h375"/><path d="M222,149h375"/><path d="M222,149h375"/><path d="M222,149h375"/><path d="M222,149h375"/><path d="M222,149h375"/><path d="M222,149h375"/><path d="M222,149h375"/><path d="M222,149h375"/><path d="M222,149h375"/><path d="M222,149h375"/><path d="M222,149h375"/><path d="M222,149h375"/><path d="M222,149h375"/><path d="M222,149h375"/><path d="M222,149h375"/><path d="M222,149h375"/><path d="M222,149h375"/><path d="M222,149h375"/><path d="M222,149h375"/><path d="M222,149h375"/><path d="M222,149h375"/><path d="M222,149h375"/><path d="M222,149h375"/><path d="M222,149h375"/><path d="M222,149h375"/><path d="M222,149h375"/><path d="M222,149h375"/><path d="M222,149h375"/><path d="M222,149h375"/><path d="M222,149h375"/><path d="M222,149h375"/><path d="M222,149h375"/><path d="M222,149h375"/><path d="M222,149h375"/><path d="M222,149h375"/><path d="M222,149h375"/><path d="M222,149h375"/><path d="M222,149h375"/><path d="M222,149h375"/><path d="M222,149h375"/><path d="M222,149h375"/><path d="M222,149h375"/><path d="M222,149h375"/><path d="M222,149h375"/><path d="M222,149h375"/><path d="M222,149h375"/><path d="M222,149h375"/><path d="M222,149h375"/><path d="M222,149h375"/><path d="M222,149h375"/><path d="M222,149h375"/><path d="M222,149h375"/><path d="M222,149h375"/><path d="M222,149h375"/><path d="M222,149h375"/><path d="M222,149h375"/><path d="M222,149h375"/><path d="M222,149h375"/><path d="M222,149h375"/><path d="M222,149h375"/><path d="M222,149h375"/><path d="M222,149h375"/><path d="M222,149h375"/><path d="M222,149h375"/><path d="M222,149h375"/><path d="M222,149h375"/><path d="M222,149h375"/><path d="M222,149h375"/><path d="M222,149h375"/><path d="M222,149h375"/></g></svg>