<svg version="1.1" xmlns="http://www.w3.org/2000/svg" xmlns:xlink="http://www.w3.org/1999/xlink" width="600" height="600" viewBox="0,0,600,600"><g fill="none" fill-rule="nonzero" stroke="none" stroke-width="none" stroke-linecap="butt" stroke-linejoin="miter" stroke-miterlimit="10" stroke-dasharray="" stroke-dashoffset="0" font-family="none" font-weight="none" font-size="none" text-anchor="none" style="mix-blend-mode: normal"><g fill="none" stroke="#000000" stroke-width="16" font-family="sans-serif" font-weight="normal" font-size="12" text-anchor="start"/><g fill="none" stroke="#000000" stroke-width="16" font-family="sans-serif" font-weight="normal" font-size="12" text-anchor="start"/><path d="M165,275c0,41.42136 30.22078,75 67.5,75c37.27922,0 55,-25 67.5,-50c12.5,-25 33.57864,-56.25 75,-56.25c41.42136,0 75,33.57864 75,75" fill="none" stroke="#000000" stroke-width="16" visibility="hidden"/><path d="M300,275c-2.86587,-71.74892 -63.24291,-127.65359 -135,-125" fill="none" stroke="#000000" stroke-width="16" visibility="hidden"/><path d="M232.5,200c-21.83709,-7.17696 -44.541,-11.38138 -67.5,-12.5" fill="none" stroke="#000000" stroke-width="16" visibility="hidden"/><path d="M232.5,200c-21.83709,-7.17696 -44.541,-11.38138 -67.5,-12.5" fill="none" stroke="#000000" stroke-width="16" visibility="hidden"/><path d="M300,150v300M165,275c0,-41.42136 0,-12.5 0,-50c0,-37.5 0,-75 0,-75M300,318.75c0,-41.42136 33.57864,-75 75,-75c41.42136,0 75,33.57864 75,75M165,275c0,41.42136 30.22078,75 67.5,75c37.27922,0 67.5,-33.57864 67.5,-75M343.30363,386.72308c23.22788,10.83134 50.37845,9.0518 71.99384,-4.71873c21.61539,-13.77052 34.70253,-37.62523 34.70253,-63.25436M112.5,150h375" fill="none" stroke="#000000" stroke-width="16" visibility="hidden"/><path d="M310,264.04615c1.55937,-1.89383 3.19335,-3.69766 4.89592,-5.40023c14.83251,-14.83251 37.35025,-24.89592 60.10408,-24.89592c22.75383,0 45.27157,10.06342 60.10408,24.89592c7.4486,7.4486 14.03609,17.14199 18.2121,27.01517c4.16408,9.845 5.89387,29.19338 5.89387,29.19338c0.17212,0.54696 -6.79706,2.40182 -12.34411,3.89552h13.13406c-0.61637,28.03408 -15.68583,56.62558 -39.32953,71.68827c-11.8859,7.57215 -26.51654,12.23869 -40.1112,13.12974c-6.81084,0.44641 -14.3067,0.01121 -21.07154,-1.24413c-6.75593,-1.25369 -18.00864,-5.76865 -18.00864,-5.76865c-0.59725,-0.14953 4.21314,-19.37286 3.65544,-19.66187c0.31864,0.12098 12.53168,4.75106 18.00228,5.76623c5.53422,1.02698 10.53219,1.31712 16.1144,0.95124c11.19144,-0.73353 20.94378,-3.84201 30.67327,-10.04039c19.58708,-12.47835 30.69189,-31.59626 30.07553,-54.82044h0.07376c-0.22714,-3.31632 -0.73685,-9.8966 -1.39448,-13.11036c-0.89762,-4.38656 -2.07408,-8.1467 -3.7832,-12.1875c-3.41441,-8.07257 -7.81041,-14.54035 -13.93414,-20.66408c-12.31215,-12.31215 -27.29441,-19.03806 -45.96194,-19.03806c-18.66753,0 -33.64979,6.7259 -45.96194,19.03806c-11.6005,11.6005 -18.62936,25.57134 -19.03806,42.76166v134.45028h-20v-118.00929c-0.76176,0.9361 -1.54113,1.84725 -2.33735,2.73195c-13.44447,14.9383 -34.29607,25.27734 -55.16265,25.27734c-20.86658,0 -41.71818,-10.33905 -55.16265,-25.27734c-6.71909,-7.46565 -12.63535,-17.1382 -16.37863,-26.97164c-3.72462,-9.78443 -5.30448,-29.19338 -5.30448,-29.19338c-0.14372,-0.50656 6.90719,-2.19941 12.49972,-3.55763h-13.15396c0,-20.71068 0,-23.83568 0,-26.47051c0,-2.63483 0,-4.77949 0,-23.52949c0,-25.68167 0,-51.36334 0,-65h-42.5v-20h375v20h-177.5zM175,225c0,18.75 0,20.89466 0,23.52949c0,2.63483 0,5.75983 0,26.47051l-0.06173,0c0.19645,3.23946 0.6584,9.99553 1.2677,13.30391c0.81565,4.42885 1.89499,8.26193 3.44428,12.33184c3.0881,8.11231 7.05698,14.60093 12.55299,20.70761c10.98573,12.20636 23.88413,18.65664 40.29677,18.65664c16.41264,0 29.31104,-6.45027 40.29677,-18.65664c10.48067,-11.64519 16.86219,-25.89385 17.20323,-43.37028l0,-117.97309l-115,0c0,13.63666 0,39.31833 0,65zM345.12817,376.89094c0.00219,0.00055 0.00431,0.00135 0.00636,0.00242c-0.00422,-0.0016 -0.00636,-0.00242 -0.00636,-0.00242z" fill-opacity="0" fill="#000000" stroke="#0000ff" stroke-width="0"/></g></svg>