<svg version="1.1" xmlns="http://www.w3.org/2000/svg" xmlns:xlink="http://www.w3.org/1999/xlink" width="600" height="600" viewBox="0,0,600,600"><g fill="none" fill-rule="nonzero" stroke="none" stroke-width="none" stroke-linecap="butt" stroke-linejoin="miter" stroke-miterlimit="10" stroke-dasharray="" stroke-dashoffset="0" font-family="none" font-weight="none" font-size="none" text-anchor="none" style="mix-blend-mode: normal"><g fill="none" stroke="#000000" stroke-width="16" font-family="sans-serif" font-weight="normal" font-size="12" text-anchor="start"/><path d="M375,150v300M375,281.25c-9.45606,-37.23324 -45.15748,-61.59849 -83.27608,-56.83367c-38.1186,4.76483 -66.72392,37.16842 -66.72392,75.58367c0,38.41525 28.60531,70.81884 66.72392,75.58367c38.1186,4.76483 73.82002,-19.60043 83.27608,-56.83367M375,318.75c3.125,-12.30469 3.125,-25.19531 0,-37.5M244.06748,249.58926l113.82848,101.26056M162.5,150h275" fill="none" stroke="#000000" stroke-width="16" visibility="hidden"/><path d="M385,280.07176c1.48898,6.42737 2.34375,13.44805 2.34375,19.92824c0,6.91427 -2.34375,18.75 -2.34375,18.75v131.25h-20v-92.41552c-4.61371,5.23711 -9.75627,9.84033 -15.25253,13.59138c-16.24687,11.08805 -38.34644,16.94526 -59.2639,14.33058c-20.91746,-2.61468 -40.89527,-13.73157 -53.91287,-28.47768c-13.0176,-14.74611 -21.5707,-35.94852 -21.5707,-57.02877c0,-21.08024 8.5531,-42.28266 21.5707,-57.02877c13.0176,-14.74611 32.99541,-25.86299 53.91287,-28.47768c20.91746,-2.61468 43.01703,3.24253 59.2639,14.33058c5.39186,3.6798 10.64045,8.26849 15.25253,13.3204l0,-82.14453h-202.5v-20h275v20l-52.5,0zM361.19708,272.12692c-1.7607,-3.7996 -3.62058,-6.99732 -5.99893,-10.35606c-4.75198,-6.71081 -10.00652,-11.84217 -16.7248,-16.42721c-13.49751,-9.21168 -28.30795,-13.15468 -45.50909,-11.00454c-13.62208,1.70276 -24.85034,6.7402 -34.30436,14.8472l98.11749,87.28424c3.6595,-5.55208 6.43726,-11.8145 8.22261,-18.90875v-35.00114c-1.01852,-3.12017 -2.66133,-7.97017 -3.80292,-10.43373zM235,300c0,17.33501 5.74956,31.54201 16.56426,43.79272c10.81471,12.25071 24.19886,19.71803 41.4,21.86817c17.20114,2.15014 32.01158,-1.79285 45.50909,-11.00454c1.63802,-1.1179 3.21602,-2.28077 4.73145,-3.49143l-97.77251,-86.97735c-6.8423,10.36977 -10.43229,22.11455 -10.43229,35.81242z" fill-opacity="0" fill="#000000" stroke="#0000ff" stroke-width="0"/></g></svg>