<svg version="1.1" xmlns="http://www.w3.org/2000/svg" xmlns:xlink="http://www.w3.org/1999/xlink" width="600" height="600" viewBox="0,0,600,600"><g fill="none" fill-rule="nonzero" stroke="none" stroke-width="none" stroke-linecap="butt" stroke-linejoin="miter" stroke-miterlimit="10" stroke-dasharray="" stroke-dashoffset="0" font-family="none" font-weight="none" font-size="none" text-anchor="none" style="mix-blend-mode: normal"><path d="M400,150v300M162.5,150c0,-20.71068 16.78932,-37.5 37.5,-37.5c20.71068,0 37.5,16.78932 37.5,37.5c0,20.71068 -16.78932,37.5 -37.5,37.5c-20.71068,0 -37.5,-16.78932 -37.5,-37.5zM237.5,150v150M237.5,300h162.5M237.5,300c0,168.75 -168.75,0 0,0M300,150h168.75" fill="none" stroke="#000000" stroke-width="16" visibility="hidden"/><path d="M410,450h-20l0,-140l-142.8356,0c-2.15882,38.3616 -13.96482,61.19529 -28.24991,69.76634c-8.45577,5.07346 -19.75356,6.13653 -28.22532,4.11944c-8.3898,-1.99757 -17.41055,-7.40253 -23.54148,-13.53346c-6.13093,-6.13093 -11.53589,-15.15169 -13.53346,-23.54148c-2.01709,-8.47176 -0.95402,-19.76955 4.11944,-28.22532c8.45372,-14.08953 60.4592,-22.18518 69.76634,-23.53021v-106.44466c-7.7912,5.35057 -17.87009,8.88937 -27.5,8.88937c-12.39849,0 -25.54123,-5.86609 -33.58757,-13.91243c-8.04634,-8.04634 -13.91243,-21.18908 -13.91243,-33.58757c0,-12.39849 5.86609,-25.54123 13.91243,-33.58757c8.04634,-8.04634 21.18908,-13.91243 33.58757,-13.91243c12.39849,0 25.54123,5.86609 33.58757,13.91243c8.04634,8.04634 13.91243,21.18908 13.91243,33.58757l0,140l142.5,0l0,-130h-90v-20h168.75v20l-58.75,0zM180.55456,169.44544c5.52599,5.52599 11.13325,8.05456 19.44544,8.05456c8.31219,0 13.91945,-2.52857 19.44544,-8.05456c5.52599,-5.52599 8.05456,-11.13325 8.05456,-19.44544c0,-8.31219 -2.52857,-13.91945 -8.05456,-19.44544c-5.52599,-5.52599 -11.13325,-8.05456 -19.44544,-8.05456c-8.31219,0 -13.91945,2.52857 -19.44544,8.05456c-5.52599,5.52599 -8.05456,11.13325 -8.05456,19.44544c0,8.31219 2.52857,13.91945 8.05456,19.44544zM223.32998,310.45599c-4.43401,0.30086 -8.35222,0.72167 -12.16812,1.28916c-7.53915,1.12121 -13.36629,2.5955 -18.6297,4.55048c-10.0164,3.72038 -14.56271,7.43657 -17.64864,12.57979c-2.8367,4.72783 -3.09199,7.93199 -1.81318,13.303c1.29833,5.45298 3.80353,9.61581 8.21947,14.03176c4.41594,4.41594 8.57878,6.92114 14.03176,8.21947c5.37101,1.27881 8.57517,1.02352 13.303,-1.81318c9.89846,-5.93907 17.84397,-19.82732 18.80178,-52.35907c-1.56105,0.05816 -3.00609,0.1246 -4.09638,0.19858z" fill-opacity="0" fill="#000000" stroke="#0000ff" stroke-width="0"/></g></svg>