<svg version="1.1" xmlns="http://www.w3.org/2000/svg" xmlns:xlink="http://www.w3.org/1999/xlink" width="600" height="600" viewBox="0,0,600,600"><g fill="none" fill-rule="nonzero" stroke="none" stroke-width="none" stroke-linecap="butt" stroke-linejoin="miter" stroke-miterlimit="10" stroke-dasharray="" stroke-dashoffset="0" font-family="none" font-weight="none" font-size="none" text-anchor="none" style="mix-blend-mode: normal"><g fill="none" stroke="#000000" stroke-width="16" font-family="sans-serif" font-weight="normal" font-size="12" text-anchor="start"/><path d="M300,150c33.13708,0 60,26.86292 60,60c0,33.13708 -26.86292,60 -60,60M300,270l120,150M187.5,150h225" fill="none" stroke="#000000" stroke-width="16" visibility="hidden"/><path d="M349.49747,160.50253c12.11804,12.11804 20.50253,30.88578 20.50253,49.49747c0,18.61169 -8.38448,37.37943 -20.50253,49.49747c-6.09137,6.09137 -14.16864,11.58051 -22.24725,14.99747c-2.46753,1.04368 -5.61656,1.89054 -8.79748,2.56318l109.35594,136.69492l-15.61738,12.4939l-120,-150l8.50362,-6.80289c-1.26101,-4.65923 -2.45098,-9.23384 -2.69623,-9.24125c0.19616,-0.01179 8.70371,-0.52612 12.08864,-1.21878c3.4101,-0.69781 6.22833,-1.57957 9.37185,-2.90917c6.27799,-2.65537 11.12966,-5.95302 15.89615,-10.71952c9.59769,-9.59769 14.64466,-20.82995 14.64466,-35.35534c0,-14.52539 -5.04697,-25.75765 -14.64466,-35.35534c-8.88463,-8.88463 -19.16998,-14.24367 -32.17172,-14.64466h-115.68362v-20h225v20l-63.5113,0c0.17086,0.1667 0.34046,0.33421 0.50878,0.50253zM297.9987,260.20281c-0.00229,0.00014 -0.00345,0.00021 -0.00345,0.00021c0.00113,-0.00017 0.00228,-0.00024 0.00345,-0.00021z" fill-opacity="0" fill="#000000" stroke="#0000ff" stroke-width="0"/></g></svg>