<svg version="1.1" xmlns="http://www.w3.org/2000/svg" xmlns:xlink="http://www.w3.org/1999/xlink" width="600" height="600" viewBox="0,0,600,600"><g fill="none" fill-rule="nonzero" stroke="none" stroke-width="none" stroke-linecap="butt" stroke-linejoin="miter" stroke-miterlimit="10" stroke-dasharray="" stroke-dashoffset="0" font-family="none" font-weight="none" font-size="none" text-anchor="none" style="mix-blend-mode: normal"><g fill="none" stroke="#000000" stroke-width="16" font-family="sans-serif" font-weight="normal" font-size="12" text-anchor="start"/><path d="M412.5,150v300M165,300c11.35409,-22.70817 37.97938,-37.5 67.5,-37.5c29.52062,0 56.14591,14.79183 67.5,37.5M165,300c-14.70391,28.11442 -15.01435,60.00983 -0.85961,88.31931c14.15474,28.30948 41.55049,50.58469 75.85961,61.68069M412.5,300c-9.46174,-22.70817 -31.64948,-37.5 -56.25,-37.5c-24.60052,0 -46.78826,14.79183 -56.25,37.5M131.25,150h337.5" fill="none" stroke="#000000" stroke-width="16" visibility="hidden"/><path d="M422.5,450h-20v-147.85819c-2.04462,-3.67624 -5.01289,-8.77691 -7.0214,-11.20089c-3.32745,-4.01576 -6.6672,-7.01507 -10.97356,-9.88598c-8.64781,-5.76521 -17.46197,-8.55494 -28.25504,-8.55494c-10.79307,0 -19.60723,2.78973 -28.25504,8.55494c-8.64781,5.76521 -14.82769,12.73893 -18.76419,22.79122l-9.23077,-3.84615c-3.62739,3.34502 -7.25478,6.69003 -7.09786,7.04029c-0.24587,-0.39042 -7.22543,-11.45275 -11.17887,-15.42878c-4.04197,-4.06507 -8.22434,-7.19499 -13.51725,-10.1355c-10.68644,-5.93691 -22.21951,-8.97601 -35.70602,-8.97601c-27.09241,0 -49.24556,11.39868 -58.55573,31.97214l-0.02799,-0.014c-0.979,2.05059 -3.40531,7.18744 -4.41892,9.82951c-1.28268,3.3434 -2.26748,6.4449 -3.13303,9.85333c-1.7289,6.80817 -2.54926,13.12505 -2.6166,20.04286c-0.13489,13.859 2.78592,26.56131 9.33693,39.66334c13.23383,26.46765 37.29915,46.41999 69.99253,56.63806l-6.1544,19.02954c-35.92487,-11.97394 -66.65103,-36.57203 -81.72668,-66.72333c-7.60373,-15.20745 -11.60507,-32.60758 -11.44744,-48.80226c0.15761,-16.1931 11.2518,-44.08651 11.2518,-44.08651c0.10722,-0.83675 9.97943,1.56421 15.57422,2.88467l-14.51897,-7.25948c13.39801,-24.84289 44.49543,-43.02786 76.44427,-43.02786c16.03411,0 32.57399,4.35681 45.41888,11.49286c6.47275,3.59597 12.92063,8.42178 17.98676,13.51686c1.11337,1.11973 2.27561,2.48961 3.41191,3.94633c5.00054,-6.75933 11.05871,-12.69232 17.58341,-17.04212c10.96163,-7.30775 25.54159,-11.91393 39.34905,-11.91393c13.80745,0 28.38742,4.60618 39.34905,11.91393c2.32899,1.55266 4.66165,3.33693 6.90095,5.26898l0,-109.68291h-271.25v-20h337.5v20l-46.25,0zM292.90214,307.04029c0.00443,0.00704 0.00668,0.01061 0.00668,0.01061c-0.0027,-0.00316 -0.00492,-0.0067 -0.00668,-0.01061z" fill-opacity="0" fill="#000000" stroke="#0000ff" stroke-width="0"/></g></svg>