<svg version="1.1" xmlns="http://www.w3.org/2000/svg" xmlns:xlink="http://www.w3.org/1999/xlink" width="600" height="600" viewBox="0,0,600,600"><g fill="none" fill-rule="nonzero" stroke="none" stroke-width="none" stroke-linecap="butt" stroke-linejoin="miter" stroke-miterlimit="10" stroke-dasharray="" stroke-dashoffset="0" font-family="none" font-weight="none" font-size="none" text-anchor="none" style="mix-blend-mode: normal"><g fill="none" stroke="#000000" stroke-width="16"><path d="M375,318.75c3.125,-12.30469 3.125,-25.19531 0,-37.5" visibility="hidden"/><path d="M244.06748,249.58926l113.82848,101.26056" visibility="hidden"/></g><path d="M375,150v300M375,281.25c-9.45606,-37.23324 -45.15748,-61.59849 -83.27608,-56.83367c-38.1186,4.76483 -66.72392,37.16842 -66.72392,75.58367c0,38.41525 28.60531,70.81884 66.72392,75.58367c38.1186,4.76483 73.82002,-19.60043 83.27608,-56.83367M162.5,150h275" fill="none" stroke="#000000" stroke-width="16" visibility="hidden"/><path d="M385,450h-20v-92.41552c-4.61371,5.23711 -9.75627,9.84033 -15.25253,13.59138c-16.24687,11.08805 -38.34644,16.94526 -59.2639,14.33058c-20.91746,-2.61468 -40.89527,-13.73157 -53.91287,-28.47768c-13.0176,-14.74611 -21.5707,-35.94852 -21.5707,-57.02877c0,-21.08024 8.5531,-42.28266 21.5707,-57.02877c13.0176,-14.74611 32.99541,-25.86299 53.91287,-28.47768c20.91746,-2.61468 43.01703,3.24253 59.2639,14.33058c5.39186,3.6798 10.64045,8.26849 15.25253,13.3204l0,-82.14453h-202.5v-20h275v20l-52.5,0zM361.19708,272.12692c-1.7607,-3.7996 -3.62058,-6.99732 -5.99893,-10.35606c-4.75198,-6.71081 -10.00652,-11.84217 -16.7248,-16.42721c-13.49751,-9.21168 -28.30795,-13.15468 -45.50909,-11.00454c-17.20114,2.15014 -30.58529,9.61746 -41.4,21.86817c-10.81471,12.25071 -16.56426,26.45771 -16.56426,43.79272c0,17.33501 5.74956,31.54201 16.56426,43.79272c10.81471,12.25071 24.19886,19.71803 41.4,21.86817c17.20114,2.15014 32.01158,-1.79285 45.50909,-11.00454c13.15598,-8.9786 22.44053,-20.85796 26.52665,-37.09455v-35.00114c-1.01852,-3.12017 -2.66133,-7.97017 -3.80292,-10.43373z" fill-opacity="0" fill="#000000" stroke="#0000ff" stroke-width="0"/></g></svg>