<svg version="1.1" xmlns="http://www.w3.org/2000/svg" xmlns:xlink="http://www.w3.org/1999/xlink" width="819" height="598" viewBox="0,0,819,598"><g fill="none" fill-rule="nonzero" stroke="#000100" stroke-width="16" stroke-linecap="butt" stroke-linejoin="miter" stroke-miterlimit="10" stroke-dasharray="" stroke-dashoffset="0" font-family="none" font-weight="none" font-size="none" text-anchor="none" style="mix-blend-mode: normal"><path d="M259.5,299l56.25,75l56.25,75" visibility="hidden"/><path d="M509.5,149v300"/><path d="M447,299c0,-20.71068 16.78932,-37.5 37.5,-37.5c20.71068,0 37.5,16.78932 37.5,37.5c0,20.71068 -16.78932,37.5 -37.5,37.5c-20.71068,0 -37.5,-16.78932 -37.5,-37.5z" visibility="hidden"/><path d="M240.75,149h337.5"/><path d="M522,374v-75"/><path d="M297,149c28.06759,5.50693 50.8112,26.04231 59.14628,53.40364c8.33508,27.36133 0.90314,57.08909 -19.32726,77.30904c-20.23041,20.21996 -49.962,27.63654 -77.31902,19.28732c14.48959,54.00666 56.25269,96.45101 110.01786,111.81249c53.76517,15.36148 111.64783,1.38735 152.48214,-36.81249v-75" visibility="hidden"/><path d="M240.75,149h337.5"/><g><path d="M343.01036,149c28.06759,5.50693 50.8112,26.04231 59.14628,53.40364c8.33508,27.36133 0.90314,57.08909 -19.32726,77.30904c-20.23041,20.21996 -49.962,27.63654 -77.31902,19.28732"/><path d="M375.98964,186.42538c0,-20.71068 -16.78932,-37.5 -37.5,-37.5c-20.71068,0 -37.5,16.78932 -37.5,37.5c0,20.71068 16.78932,37.5 37.5,37.5c20.71068,0 37.5,-16.78932 37.5,-37.5"/><path d="M305.51036,299l56.25,75l56.25,75"/></g><path d="M240.75,149h337.5"/></g></svg>