<svg version="1.1" xmlns="http://www.w3.org/2000/svg" xmlns:xlink="http://www.w3.org/1999/xlink" width="819" height="598" viewBox="0,0,819,598"><g fill="none" fill-rule="nonzero" stroke="#000100" stroke-width="16" stroke-linecap="butt" stroke-linejoin="miter" stroke-miterlimit="10" stroke-dasharray="" stroke-dashoffset="0" font-family="none" font-weight="none" font-size="none" text-anchor="none" style="mix-blend-mode: normal"><path d="M484.5,149v300" fill="none"/><path d="M334.5,149l150,120" fill="none"/><path d="M334.5,149v120M334.5,269c1.17633,40.57498 34.40798,72.85714 75,72.85714c40.59202,0 73.82367,-32.28217 75,-72.85714" fill="none" visibility="hidden"/><path d="M334.5,149v120c1.17633,40.57498 34.40798,72.85714 75,72.85714c40.59202,0 73.82367,-32.28217 75,-72.85714" fill="none"/><path d="" fill="none"/><path d="M240.75,149h337.5" fill="none"/><g visibility="hidden"><path d="M334.5,151.41025l-12,10l-8,-5" fill="none"/><path d="M334.5,151.41025l-15.3923,2.66025l-4.4282,-8.33013" fill="none"/><path d="M334.5,151.41025l-14.66025,-5.3923l0.33013,-9.4282" fill="none"/><path d="M334.5,151.41025l12,10l8,-5" fill="none"/><path d="M334.5,151.41025l15.3923,2.66025l4.4282,-8.33013" fill="none"/><path d="M334.5,151.41025l14.66025,-5.3923l-0.33013,-9.4282" fill="none"/><path d="M341.5,151.41025c0,5.52285 -3.13401,10 -7,10c-3.86599,0 -7,-4.47715 -7,-10c0,-5.52285 3.13401,-10 7,-10c3.86599,0 7,4.47715 7,10z" fill="#000100"/></g></g></svg>