<svg version="1.1" xmlns="http://www.w3.org/2000/svg" xmlns:xlink="http://www.w3.org/1999/xlink" width="600" height="600" viewBox="0,0,600,600"><g fill="none" fill-rule="nonzero" stroke="none" stroke-width="none" stroke-linecap="butt" stroke-linejoin="miter" stroke-miterlimit="10" stroke-dasharray="" stroke-dashoffset="0" font-family="none" font-weight="none" font-size="none" text-anchor="none" style="mix-blend-mode: normal"><path fill="none" stroke="#000000" stroke-width="16"/><path d="M225,150v120c1.17633,40.57498 34.40798,72.85714 75,72.85714c40.59202,0 73.82367,-32.28217 75,-72.85714" fill="none" stroke="#000000" stroke-width="16" visibility="hidden"/><path d="" fill="none" stroke="#000000" stroke-width="16"/><g stroke="#000000" stroke-width="16" visibility="hidden"><path d="M225,152.41025l-12,10l-8,-5" fill="none"/><path d="M225,152.41025l-15.3923,2.66025l-4.4282,-8.33013" fill="none"/><path d="M225,152.41025l-14.66025,-5.3923l0.33013,-9.4282" fill="none"/><path d="M225,152.41025l12,10l8,-5" fill="none"/><path d="M225,152.41025l15.3923,2.66025l4.4282,-8.33013" fill="none"/><path d="M225,152.41025l14.66025,-5.3923l-0.33013,-9.4282" fill="none"/><path d="M232,152.41025c0,5.52285 -3.13401,10 -7,10c-3.86599,0 -7,-4.47715 -7,-10c0,-5.52285 3.13401,-10 7,-10c3.86599,0 7,4.47715 7,10z" fill="#000000"/></g><path d="M225,150v120M225,270c1.17633,40.57498 34.40798,72.85714 75,72.85714c40.59202,0 73.82367,-32.28217 75,-72.85714M375,150v300M225,150l150,120M131.25,150h337.5" fill="none" stroke="#000000" stroke-width="16" visibility="hidden"/><path d="M235,270h-0.04723c0.32378,3.32453 0.98276,9.48338 1.6863,12.53004c0.98892,4.2825 2.22931,7.94767 3.99253,11.88033c3.52256,7.85671 7.95164,14.13169 14.05537,20.06103c12.27001,11.91944 27.02029,18.38575 45.31303,18.38575c18.29273,0 33.04302,-6.46631 45.31303,-18.38575c11.14676,-10.82829 18.19985,-23.82306 19.48131,-39.82967l-129.79434,-103.83547zM385,450h-20l0,-127.44244c-1.82,2.21356 -3.74039,4.306 -5.75126,6.25942c-14.7879,14.36539 -36.94945,24.04016 -59.24874,24.04016c-22.29929,0 -44.46084,-9.67477 -59.24874,-24.04016c-7.42522,-7.21307 -14.06162,-16.61645 -18.36933,-26.22436c-4.29578,-9.58129 -6.50676,-28.5015 -6.50676,-28.5015c-0.17808,-0.52349 6.49078,-2.48127 11.94839,-4.09113h-12.82356l0,-110h-83.75v-20h337.5v20l-83.75,0zM365,249.19375l0,-89.19375h-111.49219z" fill-opacity="0" fill="#000000" stroke="#0000ff" stroke-width="0"/></g></svg>