<svg version="1.1" xmlns="http://www.w3.org/2000/svg" xmlns:xlink="http://www.w3.org/1999/xlink" width="600" height="600" viewBox="0,0,600,600"><g fill="none" fill-rule="nonzero" stroke="none" stroke-width="none" stroke-linecap="butt" stroke-linejoin="miter" stroke-miterlimit="10" stroke-dasharray="" stroke-dashoffset="0" font-family="none" font-weight="none" font-size="none" text-anchor="none" style="mix-blend-mode: normal"><path d="M150,300c14.48959,54.00666 56.25269,96.45101 110.01786,111.81249c53.76517,15.36148 111.64783,1.38735 152.48214,-36.81249" fill="none" stroke="#000000" stroke-width="16" visibility="hidden"/><path d="M412.5,270v0" fill="none" stroke="#000000" stroke-width="16"/><path d="M187.5,150c28.06759,5.50693 50.8112,26.04231 59.14628,53.40364c8.33508,27.36133 0.90314,57.08909 -19.32726,77.30904c-20.23041,20.21996 -49.962,27.63654 -77.31902,19.28732M150,300l56.25,75l56.25,75M412.5,150v300M412.5,270h-176.239M131.25,150h337.5" fill="none" stroke="#000000" stroke-width="16" visibility="hidden"/><path d="M256.21227,200.48955c5.84948,19.2019 4.26046,40.72957 -3.49891,59.51045l149.78664,0v-100l-173.58367,0c12.68199,10.74306 22.50947,24.77717 27.29594,40.48955zM422.5,450h-20v-170h-161.28039c-2.11117,2.74213 -4.39044,5.34592 -6.83135,7.78558c-11.09211,11.08638 -26.00368,19.33685 -40.63593,22.98688c-6.70014,1.67136 -14.16852,2.5891 -21.22403,2.59861l97.9717,130.62893l-16,12l-112.5,-150l8,-6c0.28016,-4.94127 0.56032,-9.88254 0.24258,-9.99542c0.39247,0.08657 14.56867,3.20499 20.76912,3.35028c6.27658,0.14708 11.85095,-0.47882 17.89995,-1.98775c12.1304,-3.02594 22.19984,-8.59374 31.33813,-17.72732c18.41014,-18.40063 24.41563,-42.42262 16.83052,-67.32206c-7.4798,-24.55371 -25.32165,-41.71153 -50.44025,-46.31773h-55.39005v-20h337.5v20l-46.25,0zM150.24258,290.00458c-0.00553,-0.00122 -0.00832,-0.00184 -0.00832,-0.00184c0.00282,0.00025 0.00559,0.00087 0.00832,0.00184z" fill-opacity="0" fill="#000000" stroke="#0000ff" stroke-width="0"/></g></svg>