<svg version="1.1" xmlns="http://www.w3.org/2000/svg" xmlns:xlink="http://www.w3.org/1999/xlink" width="600" height="600" viewBox="0,0,600,600"><g fill="none" fill-rule="nonzero" stroke="none" stroke-width="none" stroke-linecap="butt" stroke-linejoin="miter" stroke-miterlimit="10" stroke-dasharray="" stroke-dashoffset="0" font-family="none" font-weight="none" font-size="none" text-anchor="none" style="mix-blend-mode: normal"><g fill="none" stroke="#000000" stroke-width="16" font-family="sans-serif" font-weight="normal" font-size="12" text-anchor="start"/><path d="M366.70097,150v45M366.70097,195h-112.5M254.20097,195c-24.85281,0 -45,20.14719 -45,45c0,24.85281 20.14719,45 45,45M254.20097,285h39.375h39.375M332.95097,285c27.95942,0 50.625,22.66558 50.625,50.625M254.20097,285c-46.59903,7.7665 -66.74621,57.12711 -45,110.25c21.74621,53.12289 77.15097,89.8915 123.75,82.125M175,150h250" fill="none" stroke="#000000" stroke-width="16" visibility="hidden"/><path d="M376.70097,195h-10v10h-112.5l0,-0.0625c-2.15427,0.16259 -5.48152,0.44984 -7.06432,0.77373c-2.43364,0.49799 -4.30996,1.08506 -6.55619,2.03514c-4.48342,1.89632 -7.71897,4.09563 -11.12823,7.5049c-6.88322,6.88322 -10.25126,14.36548 -10.25126,24.74874c0,10.38326 3.36804,17.86552 10.25126,24.74874c6.88322,6.88322 14.36548,10.68776 24.74874,10.25126h78.75c16.02286,0.4365 32.44685,7.33515 42.86835,17.75665c5.2431,5.2431 10.04577,12.31029 12.98833,19.26729c2.93064,6.92881 3.97836,19.70553 3.97836,19.70553c0.28554,28.86678 -19.08182,33.37348 -19.00703,5.90027c0,0 -0.45265,-7.38849 -1.02852,-10.2027c-0.57292,-2.79981 -1.2705,-5.02935 -2.3629,-7.61206c-2.18097,-5.15638 -4.79215,-8.99797 -8.71038,-12.9162c-7.90115,-7.90115 -16.78965,-12.33529 -28.72621,-11.89879l-78.10346,0c-3.83664,0.99265 -9.91997,2.6575 -12.80709,3.9341c-4.35958,1.92767 -7.75426,4.00802 -11.30096,6.87522c-7.08951,5.73125 -11.7869,12.2107 -15.40948,21.08601c-7.40216,18.1353 -7.05733,39.6908 3.12559,64.56624c10.27594,25.10265 27.56952,45.24303 48.8301,59.35232c21.12786,14.02122 42.91121,20.70302 64.02131,16.69718l3.28798,19.72788c-25.48893,3.76066 -54.70748,-4.05859 -78.3683,-19.76078c-23.52812,-15.61411 -44.81002,-40.41949 -56.28029,-68.43972c-11.56328,-28.24745 -12.01797,-57.9337 -3.13333,-79.70105c4.52082,-11.07602 12.23841,-21.71313 21.3529,-29.08141c1.86553,-1.50812 3.91543,-2.97978 6.06883,-4.36127c-3.31529,-2.05891 -6.33317,-4.41234 -8.92466,-7.00384c-9.40357,-9.40357 -16.10913,-24.42132 -16.10913,-38.89087c0,-14.46956 6.70555,-29.4873 16.10913,-38.89087c4.73414,-4.73414 11.19529,-9.12493 17.47932,-11.78285c6.25584,-2.646 17.51603,-3.53632 17.51603,-3.53632c0.54696,-0.17212 2.40182,6.79706 3.89552,12.34411l0,-13.13406h102.5v-25h-181.70097v-20h250v20h-48.29903z" fill-opacity="0" fill="#000000" stroke="#0000ff" stroke-width="0"/></g></svg>