<svg version="1.1" xmlns="http://www.w3.org/2000/svg" xmlns:xlink="http://www.w3.org/1999/xlink" width="819" height="598" viewBox="0,0,819,598"><g fill="none" fill-rule="nonzero" stroke="#000001" stroke-width="16" stroke-linecap="butt" stroke-linejoin="miter" stroke-miterlimit="10" stroke-dasharray="" stroke-dashoffset="0" font-family="none" font-weight="none" font-size="none" text-anchor="none" style="mix-blend-mode: normal"><path d="M409.5,419v-270" visibility="hidden"/><g font-family="sans-serif" font-weight="normal" font-size="12" text-anchor="start"/><g visibility="hidden"><path d="M512.44136,260.44136h-224"/></g><g><path d="M824.30374,365.57511l41.65064,19.52497"/><path d="M856.13792,297.66646c18.75246,8.79077 26.828,31.11896 18.03723,49.87142c-8.79077,18.75246 -31.11896,26.828 -49.87142,18.03723c-18.75246,-8.79077 -26.828,-31.11896 -18.03723,-49.87142c8.79077,-18.75246 31.11896,-26.828 49.87142,-18.03723z" visibility="hidden"/></g><path d="M512.44136,149v300"/><path d="M413.18852,149h145.08197"/><path d="M184.5,186.5h450" visibility="hidden"/><path d="M184.5,224h450" visibility="hidden"/><path d="M184.5,261.5h450" visibility="hidden"/><path d="M184.5,299h450" visibility="hidden"/><path d="M184.5,336.5h450" visibility="hidden"/><g><path d="M343.48915,169.96515l7.45221,40.47621"/><path d="M343.48915,169.96515c-3.72611,-20.23811 1.92279,-40.47621 20.67279,-40.47621c18.75,0 41.72531,22.9495 35.57721,40.47621c-6.1481,17.52671 -20.04794,20.23811 -48.79779,40.47621"/><path d="M350.94136,210.44136c-57.49969,40.47621 -67.16265,95.284 -50.25865,134.38102c16.904,39.09702 47.78406,55.85717 85.28406,55.85717"/><path d="M385.96677,400.67955c25.55016,0 41.65873,-11.43157 38.42266,-41.10306c-3.23608,-29.67149 -30.62669,-50.59903 -53.88694,-42.89015c-11.63012,3.85444 -18.36252,17.33187 -14.51764,32.16761c3.84488,14.83574 14.90443,80.95242 14.90443,80.95242c0,0 10.19411,55.36862 7.45221,40.47621"/></g><path d="M351.3512,210.44136h161.09016"/></g></svg>