<svg version="1.1" xmlns="http://www.w3.org/2000/svg" xmlns:xlink="http://www.w3.org/1999/xlink" width="819" height="598" viewBox="0,0,819,598"><g fill="none" fill-rule="nonzero" stroke="#000001" stroke-width="16" stroke-linecap="butt" stroke-linejoin="miter" stroke-miterlimit="10" stroke-dasharray="" stroke-dashoffset="0" font-family="none" font-weight="none" font-size="none" text-anchor="none" style="mix-blend-mode: normal"><path d="M509.5,149v75"/><g><path d="M484.5,261.5c0,-20.71068 11.19288,-37.5 25,-37.5c13.80712,0 25,16.78932 25,37.5c0,20.71068 -11.19288,37.5 -25,37.5c-13.80712,0 -25,-16.78932 -25,-37.5z"/><path d="M309.5,224c-21.51067,-0.49896 -40.97834,12.67732 -48.50957,32.83268c-7.53123,20.15536 -1.47422,42.86917 15.09288,56.5983c16.5671,13.72914 40.01065,15.46243 58.41669,4.31901"/><path d="M334.5,317.75c-31.90509,25.21756 -45.6474,67.06368 -34.90472,106.28682c10.74268,39.22314 43.88982,68.22688 84.19186,73.66788c40.30205,5.441 79.95365,-13.73449 100.71286,-48.7047"/><path d="M484.5,449c38.43039,-54.5669 56.15735,-121.04303 50,-187.5"/></g><path d="M240.75,149h337.5"/></g></svg>