<svg version="1.1" xmlns="http://www.w3.org/2000/svg" xmlns:xlink="http://www.w3.org/1999/xlink" width="819" height="598" viewBox="0,0,819,598"><g fill="none" fill-rule="nonzero" stroke="#000001" stroke-width="16" stroke-linecap="butt" stroke-linejoin="miter" stroke-miterlimit="10" stroke-dasharray="" stroke-dashoffset="0" font-family="none" font-weight="none" font-size="none" text-anchor="none" style="mix-blend-mode: normal"><path d="M522,149v300"/><g><path d="M420.07802,149v50"/><path d="M420.07802,199h-100"/><path d="M320.07802,199c-22.09139,0 -40,22.38576 -40,50c0,27.61424 17.90861,50 40,50"/><path d="M320.07802,299h70"/><path d="M390.07802,299c33.13708,0 60,33.57864 60,75c0,41.42136 -26.86292,75 -60,75"/><path d="M390.07802,449h-100"/><path d="M290.07802,449c-6.52958,0 -12.34695,-5.15534 -14.50829,-12.85721c-2.16134,-7.70188 -0.19515,-16.27011 4.9036,-21.36886c5.09875,-5.09875 12.21776,-5.61571 17.75454,-1.28927c5.53678,4.32643 8.28347,12.55244 6.85015,20.51535"/><path d="M305.07802,434v52.5"/></g><path d="M443.25,336.5h78.75"/><path d="M240.75,149h337.5"/></g></svg>