<svg version="1.1" xmlns="http://www.w3.org/2000/svg" xmlns:xlink="http://www.w3.org/1999/xlink" width="819" height="598" viewBox="0,0,819,598"><g fill="none" fill-rule="nonzero" stroke="#000001" stroke-width="16" stroke-linecap="butt" stroke-linejoin="miter" stroke-miterlimit="10" stroke-dasharray="" stroke-dashoffset="0" font-family="none" font-weight="none" font-size="none" text-anchor="none" style="mix-blend-mode: normal"><path d="M284.5,317.75c0,-72.48737 78.35017,-131.25 175,-131.25c96.64983,0 175,58.76263 175,131.25c0,72.48737 -78.35017,131.25 -175,131.25c-96.64983,0 -175,-58.76263 -175,-131.25z" visibility="hidden"/><path d="M434.5,449c-82.84271,0 -150,-58.76263 -150,-131.25v0c0,-72.48737 67.15729,-131.25 150,-131.25h50c82.84271,0 150,58.76263 150,131.25v0c0,72.48737 -67.15729,131.25 -150,131.25z" visibility="hidden"/><path d="M433.87184,379.62184c0,-20.71068 16.78932,-37.5 37.5,-37.5c20.71068,0 37.5,16.78932 37.5,37.5c0,20.71068 -16.78932,37.5 -37.5,37.5c-20.71068,0 -37.5,-16.78932 -37.5,-37.5z" visibility="hidden"/><path d="M433.87184,379.62184c0,-41.42136 33.57864,-75 75,-75c41.42136,0 75,33.57864 75,75c0,41.42136 -33.57864,75 -75,75c-41.42136,0 -75,-33.57864 -75,-75z" visibility="hidden"/><path d="M433.87184,379.62184v10" visibility="hidden"/><path d="M533.87184,492.12184c-41.42136,0 -100,-71.07864 -100,-112.5"/><g><path d="M284.5,317.75c0,50.55778 30.45527,96.13732 77.16457,115.48494c46.7093,19.34763 100.47403,8.65316 136.22378,-27.09659"/><path d="M284.5,317.75v0c0,-72.48737 67.15729,-131.25 150,-131.25h25"/><path d="M497.88835,406.13835c12.00152,-12.00152 14.4458,-30.5677 5.95945,-45.2665c-8.48636,-14.6988 -25.78729,-21.86508 -42.18167,-17.47222c-16.39438,4.39286 -27.79429,19.24951 -27.79429,36.22222"/><path d="M459.5,111.5v75"/></g><path d="M240.75,111.5h337.5"/></g></svg>