<svg version="1.1" xmlns="http://www.w3.org/2000/svg" xmlns:xlink="http://www.w3.org/1999/xlink" width="819" height="598" viewBox="0,0,819,598"><g fill="none" fill-rule="nonzero" stroke="#000001" stroke-width="16" stroke-linecap="butt" stroke-linejoin="miter" stroke-miterlimit="10" stroke-dasharray="" stroke-dashoffset="0" font-family="none" font-weight="none" font-size="none" text-anchor="none" style="mix-blend-mode: normal"><path d="M334.5,149c-28.89023,8.79268 -46.14025,38.34589 -39.58925,67.82539c6.551,29.4795 34.69415,48.94534 64.58925,44.67461"/><path d="M334.5,149c-28.89023,8.79268 -46.14025,38.34589 -39.58925,67.82539c6.551,29.4795 34.69415,48.94534 64.58925,44.67461" visibility="hidden"/><path d="M359.5,261.5c-30.11577,16.73098 -41.71137,54.21307 -26.30432,85.02716c15.40705,30.81409 52.35007,44.02686 83.80432,29.97284"/><path d="M417,376.5c40.06474,-12.22519 73.44806,-40.195 92.5,-77.5"/><path d="M316.77904,172.91685c0,-13.80712 11.19288,-25 25,-25c13.80712,0 25,11.19288 25,25c0,13.80712 -11.19288,25 -25,25c-13.80712,0 -25,-11.19288 -25,-25z"/><path d="M509.5,149v300"/><path d="M409.5,149h168.75"/><path d="M334.5,149c-32.93089,-10.09881 -68.74575,-2.17911 -94.34821,20.8631c-25.60246,23.04221 -37.23797,57.82785 -30.65179,91.6369" visibility="hidden"/><path d="M294.91075,216.82539c-10.08197,1.50747 -19.03824,7.25397 -24.61029,15.79042c-5.57205,8.53645 -7.22807,19.04808 -4.55046,28.88419" visibility="hidden"/></g></svg>