<svg version="1.1" xmlns="http://www.w3.org/2000/svg" xmlns:xlink="http://www.w3.org/1999/xlink" width="819" height="598" viewBox="0,0,819,598"><g fill="none" fill-rule="nonzero" stroke="#000100" stroke-width="16" stroke-linecap="butt" stroke-linejoin="miter" stroke-miterlimit="10" stroke-dasharray="" stroke-dashoffset="0" font-family="none" font-weight="none" font-size="none" text-anchor="none" style="mix-blend-mode: normal"><path d="M297,186.5c28.06759,5.50693 50.8112,26.04231 59.14628,53.40364c8.33508,27.36133 0.90314,57.08909 -19.32726,77.30904c-20.23041,20.21996 -49.962,27.63654 -77.31902,19.28732"/><path d="M259.5,336.5l56.25,75l56.25,75" visibility="hidden"/><path d="M259.5,336.5c14.48959,54.00666 56.25269,96.45101 110.01786,111.81249c53.76517,15.36148 111.64783,1.38735 152.48214,-36.81249"/><path d="M522,186.5v300"/><path d="M522,317.75c-9.28118,-30.24119 -39.29025,-49.14172 -70.57363,-44.44921c-31.28338,4.69251 -54.42637,31.56585 -54.42637,63.19921c0,31.63337 23.14298,58.50671 54.42637,63.19921c31.28338,4.69251 61.29245,-14.20803 70.57363,-44.44921"/><path d="M240.75,186.5h337.5"/></g></svg>